<svg width="92" height="89" viewBox="0 0 92 89" fill="none" xmlns="http://www.w3.org/2000/svg">
<path d="M89.125 68.1841H79.4219C78.7031 70.3428 77.5651 72.3164 76.0078 74.105L80.2305 81.7838C80.5898 82.524 80.6647 83.2641 80.4551 84.0042C80.2454 84.7443 79.8411 85.3303 79.2422 85.762L74.4805 88.63C73.8216 89.0001 73.1328 89.0926 72.4141 88.9075C71.6953 88.7225 71.1562 88.2599 70.7969 87.5198L66.4844 79.7485C65.2865 79.9952 64.2083 80.1186 63.25 80.1186C62.2917 80.1186 61.2135 79.9952 60.0156 79.7485L55.7031 87.5198C55.3438 88.2599 54.8047 88.7225 54.0859 88.9075C53.3672 89.0926 52.6784 89.0001 52.0195 88.63L47.2578 85.762C46.6589 85.3303 46.2546 84.7443 46.0449 84.0042C45.8353 83.2641 45.9102 82.524 46.2695 81.7838L50.4922 74.105C48.9349 72.3164 47.7969 70.3428 47.0781 68.1841H37.375C36.5964 68.1841 35.9225 67.9065 35.3535 67.3514C34.7845 66.7963 34.5 66.087 34.5 65.2235V59.3026C34.5 58.5008 34.7845 57.8069 35.3535 57.221C35.9225 56.635 36.5964 56.3421 37.375 56.3421H47.0781C47.7969 54.245 48.9349 52.3022 50.4922 50.5136L46.2695 42.8348C45.9102 42.0946 45.8353 41.3545 46.0449 40.6144C46.2546 39.8743 46.6589 39.2883 47.2578 38.8566L52.0195 35.9886C52.6784 35.6186 53.3672 35.526 54.0859 35.7111C54.8047 35.8961 55.3438 36.3278 55.7031 37.0063L60.0156 44.8701C61.2135 44.6234 62.2917 44.5001 63.25 44.5001C64.2083 44.5001 65.2865 44.6234 66.4844 44.8701L70.7969 37.0063C71.1562 36.3278 71.6953 35.8961 72.4141 35.7111C73.1328 35.526 73.8216 35.6186 74.4805 35.9886L79.2422 38.8566C79.8411 39.2883 80.2454 39.8743 80.4551 40.6144C80.6647 41.3545 80.5898 42.0946 80.2305 42.8348L76.0078 50.5136C77.5651 52.3022 78.7031 54.245 79.4219 56.3421H89.125C89.9036 56.3421 90.5775 56.635 91.1465 57.221C91.7155 57.8069 92 58.5008 92 59.3026V65.2235C92 66.087 91.7155 66.7963 91.1465 67.3514C90.5775 67.9065 89.9036 68.1841 89.125 68.1841ZM63.25 56.3421C61.6328 56.3421 60.2702 56.928 59.1621 58.0998C58.054 59.2717 57.5 60.6749 57.5 62.3093C57.5 63.9438 58.054 65.3315 59.1621 66.4725C60.2702 67.6135 61.6328 68.1841 63.25 68.1841C64.8672 68.1841 66.2298 67.6135 67.3379 66.4725C68.446 65.3315 69 63.9438 69 62.3093C69 60.6749 68.446 59.2717 67.3379 58.0998C66.2298 56.928 64.8672 56.3421 63.25 56.3421ZM54.625 32.6581H44.9219C44.2031 34.8168 43.0651 36.7904 41.5078 38.5791L45.7305 46.2579C46.0898 46.9363 46.1647 47.661 45.9551 48.432C45.7454 49.2029 45.3411 49.8043 44.7422 50.236L39.9805 53.104C39.3216 53.4741 38.6328 53.5512 37.9141 53.3353C37.1953 53.1194 36.6562 52.6723 36.2969 51.9938L31.9844 44.2225C30.8464 44.4075 29.7682 44.5001 28.75 44.5001C27.7318 44.5001 26.6536 44.4075 25.5156 44.2225L21.2031 51.9938C20.8438 52.6723 20.3047 53.1194 19.5859 53.3353C18.8672 53.5512 18.1784 53.4741 17.5195 53.104L12.7578 50.236C12.1589 49.8043 11.7546 49.2029 11.5449 48.432C11.3353 47.661 11.4102 46.9363 11.7695 46.2579L15.9922 38.5791C14.4349 36.7904 13.2969 34.8168 12.5781 32.6581H2.875C2.09635 32.6581 1.42253 32.3805 0.853516 31.8254C0.284505 31.2703 0 30.561 0 29.6976V23.7766C0 22.9748 0.284505 22.2809 0.853516 21.695C1.42253 21.109 2.09635 20.8161 2.875 20.8161H12.5781C13.2969 18.719 14.4349 16.7454 15.9922 14.8951L11.7695 7.21626C11.4102 6.53781 11.3353 5.81311 11.5449 5.04215C11.7546 4.27118 12.1589 3.70067 12.7578 3.33061L17.5195 0.462623C18.1784 0.0308838 18.8672 -0.0770511 19.5859 0.138819C20.3047 0.354688 20.8438 0.801847 21.2031 1.4803L25.5156 9.34412C26.7135 9.09741 27.7917 8.97406 28.75 8.97406C29.7083 8.97406 30.7865 9.09741 31.9844 9.34412L36.2969 1.4803C36.6562 0.801847 37.1953 0.354688 37.9141 0.138819C38.6328 -0.0770511 39.3216 0.0308838 39.9805 0.462623L44.7422 3.33061C45.3411 3.70067 45.7454 4.27118 45.9551 5.04215C46.1647 5.81311 46.0898 6.53781 45.7305 7.21626L41.5078 14.8951C43.0651 16.7454 44.2031 18.719 44.9219 20.8161H54.625C55.4036 20.8161 56.0775 21.109 56.6465 21.695C57.2155 22.2809 57.5 22.9748 57.5 23.7766V29.6976C57.5 30.561 57.2155 31.2703 56.6465 31.8254C56.0775 32.3805 55.4036 32.6581 54.625 32.6581ZM28.75 20.8161C27.1328 20.8161 25.7702 21.402 24.6621 22.5739C23.554 23.7457 23 25.1489 23 26.7833C23 28.4178 23.554 29.8055 24.6621 30.9465C25.7702 32.0875 27.1328 32.6581 28.75 32.6581C30.3672 32.6581 31.7298 32.0875 32.8379 30.9465C33.946 29.8055 34.5 28.4178 34.5 26.7833C34.5 25.1489 33.946 23.7457 32.8379 22.5739C31.7298 21.402 30.3672 20.8161 28.75 20.8161Z" fill="#293E6F"/>
</svg>
