<svg width="101" height="91" viewBox="0 0 101 91" fill="none" xmlns="http://www.w3.org/2000/svg">
<path d="M100.391 47.1719C100.38 42.6081 99.1765 38.1331 96.909 34.2242C94.6415 30.3154 91.3948 27.1196 87.5155 24.9777V22.0937C87.5134 17.6251 86.1853 13.2659 83.7124 9.60956C81.2394 5.95327 77.7416 3.17771 73.6955 1.66087C69.6493 0.144036 65.2515 -0.0403395 61.1008 1.13285C56.9502 2.30605 53.2485 4.77979 50.4999 8.21717C47.7514 4.77979 44.0497 2.30605 39.8991 1.13285C35.7484 -0.0403395 31.3505 0.144036 27.3044 1.66087C23.2582 3.17771 19.7605 5.95327 17.2875 9.60956C14.8145 13.2659 13.4865 17.6251 13.4843 22.0937V24.9777C9.60306 27.1152 6.35563 30.3106 4.09079 34.2208C1.82595 38.1311 0.629272 42.6084 0.629272 47.1719C0.629272 51.7354 1.82595 56.2127 4.09079 60.1229C6.35563 64.0331 9.60306 67.2286 13.4843 69.366C13.5755 73.7955 14.9677 78.0903 17.4743 81.6749C19.9809 85.2595 23.4821 87.9627 27.509 89.4223C31.5358 90.8819 35.8959 91.0281 40.005 89.8415C44.1141 88.6548 47.7759 86.1919 50.4999 82.7828C53.2239 86.1919 56.8858 88.6548 60.9949 89.8415C65.104 91.0281 69.464 90.8819 73.4909 89.4223C77.5177 87.9627 81.019 85.2595 83.5256 81.6749C86.0322 78.0903 87.4243 73.7955 87.5155 69.366C91.3977 67.2277 94.6467 64.0327 96.9147 60.1231C99.1827 56.2134 100.384 51.7365 100.391 47.1719ZM34.4062 80.6094C31.9736 80.5994 29.6084 79.7774 27.6597 78.2647C25.711 76.7521 24.2819 74.6288 23.5831 72.2082H27.9687C29.2492 72.2082 30.4772 71.6798 31.3827 70.7392C32.2881 69.7985 32.7968 68.5228 32.7968 67.1926C32.7968 65.8623 32.2881 64.5866 31.3827 63.646C30.4772 62.7054 29.2492 62.1769 27.9687 62.1769H24.7499C21.3414 62.1656 18.0458 60.9059 15.4432 58.6193C12.8405 56.3328 11.0975 53.166 10.5207 49.6761C9.94401 46.1861 10.5705 42.5967 12.2901 39.5394C14.0096 36.482 16.712 34.1526 19.9218 32.9609C20.8655 32.6208 21.6833 31.9827 22.2604 31.1357C22.8376 30.2888 23.1454 29.2756 23.1406 28.2379V22.0937C23.1406 18.9899 24.3275 16.0131 26.4402 13.8184C28.5529 11.6236 31.4184 10.3906 34.4062 10.3906C37.394 10.3906 40.2595 11.6236 42.3722 13.8184C44.4849 16.0131 45.6718 18.9899 45.6718 22.0937V50.5992C44.7506 49.9746 43.7818 49.4295 42.7749 48.9691C42.1937 48.7057 41.5683 48.5637 40.9343 48.5513C40.3002 48.539 39.6701 48.6565 39.0798 48.8971C38.4895 49.1378 37.9506 49.4968 37.4939 49.9538C37.0371 50.4108 36.6715 50.9568 36.4179 51.5605C36.1643 52.1643 36.0276 52.8141 36.0157 53.4727C36.0038 54.1313 36.1169 54.786 36.3486 55.3992C36.5802 56.0124 36.9259 56.5722 37.3658 57.0467C37.8057 57.5212 38.3312 57.901 38.9124 58.1644C41.2938 59.2342 43.2467 61.1249 44.4413 63.5174C45.636 65.9099 45.9991 68.6573 45.4694 71.2958C44.9397 73.9342 43.5496 76.3018 41.534 77.9987C39.5183 79.6956 37.0006 80.6177 34.4062 80.6094ZM76.2499 62.2187H73.0312C71.7507 62.2187 70.5226 62.7472 69.6172 63.6878C68.7117 64.6284 68.2031 65.9041 68.2031 67.2344C68.2031 68.5646 68.7117 69.8403 69.6172 70.7809C70.5226 71.7216 71.7507 72.25 73.0312 72.25H77.4167C76.8786 74.1347 75.8921 75.8482 74.5484 77.2324C73.2046 78.6166 71.5468 79.6268 69.7281 80.1699C67.9093 80.7129 65.9882 80.7713 64.142 80.3395C62.2958 79.9078 60.5841 78.9998 59.1648 77.6996C57.7455 76.3993 56.6644 74.7485 56.0212 72.8997C55.378 71.0508 55.1935 69.0635 55.4848 67.121C55.776 65.1786 56.5336 63.3436 57.6875 61.7856C58.8415 60.2275 60.3547 58.9965 62.0874 58.2062C62.6686 57.9428 63.1942 57.563 63.6341 57.0885C64.074 56.614 64.4196 56.0542 64.6513 55.441C64.8829 54.8278 64.996 54.1731 64.9841 53.5145C64.9722 52.8559 64.8356 52.2061 64.582 51.6023C64.3283 50.9986 63.9627 50.4526 63.506 49.9956C63.0493 49.5386 62.5104 49.1795 61.9201 48.9389C61.3298 48.6983 60.6996 48.5808 60.0656 48.5931C59.4316 48.6055 58.8061 48.7475 58.2249 49.0109C57.2181 49.4713 56.2492 50.0164 55.3281 50.641V22.0937C55.3281 18.9899 56.515 16.0131 58.6277 13.8184C60.7404 11.6236 63.6059 10.3906 66.5937 10.3906C69.5815 10.3906 72.447 11.6236 74.5597 13.8184C76.6724 16.0131 77.8593 18.9899 77.8593 22.0937V28.2379C77.8545 29.2756 78.1622 30.2888 78.7394 31.1357C79.3166 31.9827 80.1343 32.6208 81.078 32.9609C84.3164 34.1315 87.05 36.4576 88.7925 39.5254C90.535 42.5932 91.1734 46.2036 90.594 49.7144C90.0147 53.2252 88.2552 56.4086 85.6286 58.6983C83.0021 60.988 79.6787 62.2355 76.2499 62.2187ZM39.2343 32.125C39.2343 36.5591 37.5387 40.8116 34.5206 43.9469C31.5024 47.0823 27.4089 48.8437 23.1406 48.8437C21.8601 48.8437 20.632 48.3153 19.7266 47.3747C18.8211 46.4341 18.3124 45.1583 18.3124 43.8281C18.3124 42.4979 18.8211 41.2221 19.7266 40.2815C20.632 39.3409 21.8601 38.8125 23.1406 38.8125C24.8479 38.8125 26.4853 38.1079 27.6926 36.8538C28.8998 35.5996 29.5781 33.8986 29.5781 32.125V28.7812C29.5781 27.451 30.0867 26.1753 30.9922 25.2346C31.8976 24.294 33.1257 23.7656 34.4062 23.7656C35.6867 23.7656 36.9147 24.294 37.8202 25.2346C38.7256 26.1753 39.2343 27.451 39.2343 28.7812V32.125ZM82.6874 43.8281C82.6874 45.1583 82.1787 46.4341 81.2733 47.3747C80.3679 48.3153 79.1398 48.8437 77.8593 48.8437C73.591 48.8437 69.4975 47.0823 66.4793 43.9469C63.4611 40.8116 61.7656 36.5591 61.7656 32.125V28.7812C61.7656 27.451 62.2742 26.1753 63.1797 25.2346C64.0851 24.294 65.3132 23.7656 66.5937 23.7656C67.8742 23.7656 69.1022 24.294 70.0077 25.2346C70.9131 26.1753 71.4218 27.451 71.4218 28.7812V32.125C71.4218 33.8986 72.1 35.5996 73.3073 36.8538C74.5146 38.1079 76.152 38.8125 77.8593 38.8125C79.1398 38.8125 80.3679 39.3409 81.2733 40.2815C82.1787 41.2221 82.6874 42.4979 82.6874 43.8281Z" fill="#293E6F"/>
</svg>
