<svg width="94" height="88" viewBox="0 0 94 88" fill="none" xmlns="http://www.w3.org/2000/svg">
<path d="M8.8125 0C6.47528 0 4.23379 0.869194 2.58112 2.41637C0.928457 3.96354 0 6.06196 0 8.25L0 46.75C0 48.938 0.928457 51.0365 2.58112 52.5836C4.23379 54.1308 6.47528 55 8.8125 55H35.25V60.5H5.875C4.31685 60.5 2.82252 61.0795 1.72075 62.1109C0.618972 63.1424 0 64.5413 0 66L0 82.5C0 83.9587 0.618972 85.3576 1.72075 86.3891C2.82252 87.4205 4.31685 88 5.875 88H88.125C89.6831 88 91.1775 87.4205 92.2793 86.3891C93.381 85.3576 94 83.9587 94 82.5V66C94 64.5413 93.381 63.1424 92.2793 62.1109C91.1775 61.0795 89.6831 60.5 88.125 60.5H58.75V55H85.1875C87.5247 55 89.7662 54.1308 91.4189 52.5836C93.0715 51.0365 94 48.938 94 46.75V8.25C94 6.06196 93.0715 3.96354 91.4189 2.41637C89.7662 0.869194 87.5247 0 85.1875 0L8.8125 0ZM8.8125 5.5H85.1875C85.9666 5.5 86.7137 5.78973 87.2646 6.30546C87.8155 6.82118 88.125 7.52065 88.125 8.25V46.75C88.125 47.4793 87.8155 48.1788 87.2646 48.6945C86.7137 49.2103 85.9666 49.5 85.1875 49.5H8.8125C8.03343 49.5 7.28626 49.2103 6.73537 48.6945C6.18449 48.1788 5.875 47.4793 5.875 46.75V8.25C5.875 7.52065 6.18449 6.82118 6.73537 6.30546C7.28626 5.78973 8.03343 5.5 8.8125 5.5V5.5ZM70.5 68.75C70.5 68.0207 70.8095 67.3212 71.3604 66.8055C71.9113 66.2897 72.6584 66 73.4375 66C74.2166 66 74.9637 66.2897 75.5146 66.8055C76.0655 67.3212 76.375 68.0207 76.375 68.75C76.375 69.4793 76.0655 70.1788 75.5146 70.6945C74.9637 71.2103 74.2166 71.5 73.4375 71.5C72.6584 71.5 71.9113 71.2103 71.3604 70.6945C70.8095 70.1788 70.5 69.4793 70.5 68.75ZM82.25 68.75C82.25 68.0207 82.5595 67.3212 83.1104 66.8055C83.6613 66.2897 84.4084 66 85.1875 66C85.9666 66 86.7137 66.2897 87.2646 66.8055C87.8155 67.3212 88.125 68.0207 88.125 68.75C88.125 69.4793 87.8155 70.1788 87.2646 70.6945C86.7137 71.2103 85.9666 71.5 85.1875 71.5C84.4084 71.5 83.6613 71.2103 83.1104 70.6945C82.5595 70.1788 82.25 69.4793 82.25 68.75ZM8.8125 66H38.1875C38.9666 66 39.7137 66.2897 40.2646 66.8055C40.8155 67.3212 41.125 68.0207 41.125 68.75C41.125 69.4793 40.8155 70.1788 40.2646 70.6945C39.7137 71.2103 38.9666 71.5 38.1875 71.5H8.8125C8.03343 71.5 7.28626 71.2103 6.73537 70.6945C6.18449 70.1788 5.875 69.4793 5.875 68.75C5.875 68.0207 6.18449 67.3212 6.73537 66.8055C7.28626 66.2897 8.03343 66 8.8125 66V66ZM5.875 78.375C5.875 78.0103 6.02974 77.6606 6.30519 77.4027C6.58063 77.1449 6.95421 77 7.34375 77H39.6562C40.0458 77 40.4194 77.1449 40.6948 77.4027C40.9703 77.6606 41.125 78.0103 41.125 78.375C41.125 78.7397 40.9703 79.0894 40.6948 79.3473C40.4194 79.6051 40.0458 79.75 39.6562 79.75H7.34375C6.95421 79.75 6.58063 79.6051 6.30519 79.3473C6.02974 79.0894 5.875 78.7397 5.875 78.375Z" fill="#293E6F"/>
</svg>
