<svg width="800" height="800" viewBox="0 0 800 800" fill="none" xmlns="http://www.w3.org/2000/svg">
<path d="M768 0H32C14.3 0 0 14.3 0 32V768C0 785.7 14.3 800 32 800H768C785.7 800 800 785.7 800 768V32C800 14.3 785.7 0 768 0ZM292 571V648C292 652.4 288.4 656 284 656H236C231.6 656 228 652.4 228 648V571C186.3 557.4 156 518.2 156 472C156 425.8 186.3 386.5 228 373V152C228 147.6 231.6 144 236 144H284C288.4 144 292 147.6 292 152V373C333.7 386.6 364 425.8 364 472C364 518.2 333.7 557.5 292 571ZM571.6 427.1C571.8 427.1 571.9 427 572 427V648C572 652.4 568.4 656 564 656H516C511.6 656 508 652.4 508 648V427C508.2 427 508.3 427.1 508.4 427.1C466.4 413.7 436 374.4 436 328C436 281.6 466.4 242.3 508.4 228.9C508.2 228.9 508.1 229 508 229V152C508 147.6 511.6 144 516 144H564C568.4 144 572 147.6 572 152V229C571.8 229 571.7 228.9 571.6 228.9C613.6 242.3 644 281.6 644 328C644 374.4 613.6 413.7 571.6 427.1ZM504 328C504 337.548 507.793 346.705 514.544 353.456C521.295 360.207 530.452 364 540 364C549.548 364 558.705 360.207 565.456 353.456C572.207 346.705 576 337.548 576 328C576 318.452 572.207 309.295 565.456 302.544C558.705 295.793 549.548 292 540 292C530.452 292 521.295 295.793 514.544 302.544C507.793 309.295 504 318.452 504 328ZM291.4 454.5L289.9 452.1C289.9 452 289.8 452 289.8 451.9L288.9 450.7C288.8 450.6 288.7 450.5 288.7 450.4C287.7 449.1 286.7 447.9 285.5 446.8L285.3 446.6C284.9 446.2 284.5 445.8 284.1 445.5C283.3 444.7 282.4 444 281.5 443.4H281.4L280.2 442.5C280.1 442.4 279.9 442.3 279.8 442.2C278.6 441.4 277.3 440.6 275.9 440C275.7 439.9 275.4 439.8 275.2 439.6C274.8 439.4 274.5 439.3 274.1 439.1C273.8 439 273.4 438.8 273.1 438.7C272.6 438.5 272.1 438.3 271.6 438.2C271.2 438.1 270.7 437.9 270.3 437.8L269.4 437.5L268 437.2C267.8 437.1 267.5 437.1 267.3 437C266.6 436.9 265.9 436.7 265.2 436.6C265 436.6 264.8 436.6 264.6 436.5C264 436.4 263.5 436.4 262.9 436.3C262.7 436.3 262.5 436.3 262.2 436.2C261.4 436.2 260.7 436.1 259.9 436.1C259.1 436.1 258.4 436.1 257.6 436.2C257.4 436.2 257.2 436.2 256.9 436.3C256.3 436.3 255.7 436.4 255.2 436.5C255 436.5 254.8 436.5 254.6 436.6C253.9 436.7 253.2 436.8 252.5 437C252.3 437.1 252 437.1 251.8 437.2L250.4 437.5L249.5 437.8C249.1 437.9 248.6 438.1 248.2 438.2C247.7 438.4 247.2 438.6 246.7 438.7C246.4 438.8 246 439 245.7 439.1C245.3 439.3 245 439.4 244.6 439.6C244.4 439.7 244.1 439.8 243.9 440C242.6 440.7 241.3 441.4 240 442.2C239.9 442.3 239.7 442.4 239.6 442.5L238.4 443.4H238.3C237.4 444.1 236.5 444.8 235.7 445.5C235.3 445.9 234.9 446.2 234.5 446.6L234.3 446.8C233.181 447.953 232.113 449.154 231.1 450.4C231 450.5 230.9 450.6 230.9 450.7L230 451.9C230 452 229.9 452 229.9 452.1L228.4 454.5C228.3 454.7 228.2 454.8 228.1 455C225.4 460.1 223.8 465.9 223.8 472C223.8 478.1 225.4 484 228.1 489C228.2 489.2 228.3 489.3 228.4 489.5L229.9 491.9C229.9 492 230 492 230 492.1L230.9 493.3C231 493.4 231.1 493.5 231.1 493.6C232.1 494.9 233.1 496.1 234.3 497.2L234.5 497.4C234.9 497.8 235.3 498.2 235.7 498.5C236.5 499.3 237.4 500 238.3 500.6H238.4L239.6 501.5C239.7 501.6 239.9 501.7 240 501.8C241.2 502.6 242.5 503.4 243.9 504C244.1 504.1 244.4 504.2 244.6 504.4C245 504.6 245.3 504.7 245.7 504.9C246 505 246.4 505.2 246.7 505.3C247.2 505.5 247.7 505.7 248.2 505.8C248.6 505.9 249.1 506.1 249.5 506.2L250.4 506.5L251.8 506.8C252 506.9 252.3 506.9 252.5 507C253.2 507.1 253.9 507.3 254.6 507.4C254.8 507.4 255 507.4 255.2 507.5C255.8 507.6 256.3 507.6 256.9 507.7C257.1 507.7 257.3 507.7 257.6 507.8C258.4 507.8 259.1 507.9 259.9 507.9C260.7 507.9 261.4 507.9 262.2 507.8C262.4 507.8 262.6 507.8 262.9 507.7C263.5 507.7 264.1 507.6 264.6 507.5C264.8 507.5 265 507.5 265.2 507.4C265.9 507.3 266.6 507.2 267.3 507C267.5 506.9 267.8 506.9 268 506.8L269.4 506.5L270.3 506.2C270.7 506.1 271.2 505.9 271.6 505.8C272.1 505.6 272.6 505.4 273.1 505.3C273.4 505.2 273.8 505 274.1 504.9C274.5 504.7 274.8 504.6 275.2 504.4C275.4 504.3 275.7 504.2 275.9 504C277.2 503.3 278.5 502.6 279.8 501.8C279.9 501.7 280.1 501.6 280.2 501.5L281.4 500.6H281.5C282.4 499.9 283.3 499.2 284.1 498.5C284.5 498.1 284.9 497.8 285.3 497.4L285.5 497.2C286.6 496.1 287.7 494.8 288.7 493.6C288.8 493.5 288.9 493.4 288.9 493.3L289.8 492.1C289.8 492 289.9 492 289.9 491.9L291.4 489.5C291.5 489.3 291.6 489.2 291.7 489C294.4 483.9 296 478.1 296 472C296 465.9 294.4 460 291.7 455C291.6 454.8 291.5 454.6 291.4 454.5Z" fill="#081466"/>
</svg>
