<svg width="82" height="84" viewBox="0 0 82 84" fill="none" xmlns="http://www.w3.org/2000/svg">
<path d="M41 42C46.3706 42 51.5213 39.827 55.3189 35.9591C59.1165 32.0911 61.25 26.8451 61.25 21.375C61.25 15.9049 59.1165 10.6589 55.3189 6.79092C51.5213 2.92299 46.3706 0.75 41 0.75C35.6294 0.75 30.4787 2.92299 26.6811 6.79092C22.8835 10.6589 20.75 15.9049 20.75 21.375C20.75 26.8451 22.8835 32.0911 26.6811 35.9591C30.4787 39.827 35.6294 42 41 42ZM54.5 21.375C54.5 25.0217 53.0777 28.5191 50.5459 31.0977C48.0142 33.6763 44.5804 35.125 41 35.125C37.4196 35.125 33.9858 33.6763 31.4541 31.0977C28.9223 28.5191 27.5 25.0217 27.5 21.375C27.5 17.7283 28.9223 14.2309 31.4541 11.6523C33.9858 9.07366 37.4196 7.625 41 7.625C44.5804 7.625 48.0142 9.07366 50.5459 11.6523C53.0777 14.2309 54.5 17.7283 54.5 21.375ZM81.5 76.375C81.5 83.25 74.75 83.25 74.75 83.25H7.25C7.25 83.25 0.5 83.25 0.5 76.375C0.5 69.5 7.25 48.875 41 48.875C74.75 48.875 81.5 69.5 81.5 76.375ZM74.75 76.3475C74.7432 74.6562 73.7105 69.5687 69.134 64.9075C64.733 60.425 56.4507 55.75 41 55.75C25.5425 55.75 17.267 60.425 12.866 64.9075C8.2895 69.5687 7.2635 74.6562 7.25 76.3475H74.75Z" fill="#293E6F"/>
</svg>
