<svg width="500" height="373" viewBox="0 0 500 373" fill="none" xmlns="http://www.w3.org/2000/svg">
<path d="M500 327.4H0V327.65H500V327.4Z" fill="#EBEBEB"/>
<path d="M449.9 343.49H394.67V343.74H449.9V343.49Z" fill="#EBEBEB"/>
<path d="M330.5 338.25H321.81V338.5H330.5V338.25Z" fill="#EBEBEB"/>
<path d="M391.66 334.21H372.47V334.46H391.66V334.21Z" fill="#EBEBEB"/>
<path d="M95.65 335.89H52.46V336.14H95.65V335.89Z" fill="#EBEBEB"/>
<path d="M261.05 342.35H215.33V342.6H261.05V342.35Z" fill="#EBEBEB"/>
<path d="M234.14 338.12H140.46V338.37H234.14V338.12Z" fill="#EBEBEB"/>
<path d="M242.72 277.09C242.72 277.841 242.572 278.584 242.284 279.277C241.997 279.971 241.575 280.601 241.044 281.131C240.513 281.661 239.882 282.082 239.188 282.368C238.494 282.655 237.751 282.801 237 282.8H43.91C42.3974 282.797 40.9476 282.195 39.8789 281.124C38.8102 280.054 38.21 278.603 38.21 277.09V5.66C38.2232 4.15603 38.8292 2.71798 39.8965 1.65822C40.9637 0.598458 42.406 0.00257639 43.91 0H237C238.514 0 239.967 0.601588 241.038 1.67242C242.108 2.74325 242.71 4.19561 242.71 5.71L242.72 277.09ZM242.46 5.71C242.465 4.98915 242.328 4.27437 242.056 3.60675C241.784 2.93913 241.383 2.33183 240.876 1.81979C240.368 1.30774 239.765 0.901031 239.1 0.623051C238.434 0.34507 237.721 0.201299 237 0.200001H43.91C42.4637 0.20265 41.0775 0.779065 40.0557 1.80273C39.0339 2.82639 38.46 4.21365 38.46 5.66V277.09C38.46 278.536 39.0339 279.924 40.0557 280.947C41.0775 281.971 42.4637 282.547 43.91 282.55H237C238.447 282.547 239.835 281.971 240.858 280.948C241.881 279.924 242.457 278.537 242.46 277.09" fill="#EBEBEB"/>
<path d="M453.31 282.8H260.21C258.696 282.797 257.246 282.195 256.175 281.125C255.105 280.054 254.503 278.604 254.5 277.09V5.66C254.516 4.15511 255.124 2.71708 256.193 1.65759C257.262 0.598109 258.705 0.00254829 260.21 0H453.31C454.812 0.0052045 456.252 0.602249 457.317 1.66173C458.382 2.72121 458.987 4.15775 459 5.66V277.09C459 278.601 458.401 280.05 457.335 281.121C456.268 282.191 454.821 282.795 453.31 282.8V282.8ZM260.21 0.200001C258.763 0.202644 257.375 0.77874 256.352 1.80212C255.329 2.82549 254.753 4.21273 254.75 5.66V277.09C254.753 278.537 255.329 279.924 256.352 280.948C257.375 281.971 258.763 282.547 260.21 282.55H453.31C454.757 282.547 456.145 281.971 457.168 280.948C458.191 279.924 458.767 278.537 458.77 277.09V5.66C458.767 4.21273 458.191 2.82549 457.168 1.80212C456.145 0.77874 454.757 0.202644 453.31 0.200001H260.21Z" fill="#EBEBEB"/>
<path d="M339.51 69.8H273.16V146.73H339.51V69.8Z" fill="#E6E6E6"/>
<path d="M344.14 69.8H274.16V146.73H344.14V69.8Z" fill="#F0F0F0"/>
<path d="M338.28 140.88V75.6699H280.03V140.88H338.28Z" fill="white"/>
<path d="M323.32 123H308.2C304.543 122.995 301.037 121.539 298.451 118.952C295.866 116.365 294.413 112.857 294.41 109.2V94.09C294.41 93.9415 294.469 93.7991 294.574 93.694C294.679 93.589 294.822 93.53 294.97 93.53H310.09C313.749 93.5327 317.258 94.9874 319.845 97.5749C322.433 100.162 323.887 103.671 323.89 107.33V122.45C323.889 122.524 323.873 122.596 323.844 122.664C323.814 122.731 323.772 122.792 323.719 122.843C323.666 122.894 323.604 122.934 323.535 122.961C323.467 122.988 323.394 123.001 323.32 123V123ZM295.53 94.65V109.2C295.535 112.559 296.872 115.778 299.247 118.153C301.622 120.528 304.841 121.865 308.2 121.87H322.76V107.33C322.757 103.971 321.422 100.749 319.046 98.3739C316.671 95.9984 313.45 94.6627 310.09 94.66L295.53 94.65Z" fill="#F0F0F0"/>
<path d="M435.38 98.72H359.41L366.14 42.98H428.65L435.38 98.72Z" fill="#EBEBEB"/>
<path d="M371.99 98.71H370.77V120.06H371.99V98.71Z" fill="#E0E0E0"/>
<path d="M371.38 121.52C372.186 121.52 372.84 120.866 372.84 120.06C372.84 119.254 372.186 118.6 371.38 118.6C370.574 118.6 369.92 119.254 369.92 120.06C369.92 120.866 370.574 121.52 371.38 121.52Z" fill="#E0E0E0"/>
<path d="M418.71 98.72H405.65L402.88 42.98H414.93L418.71 98.72Z" fill="#F5F5F5"/>
<path d="M401.2 98.71H393.6V327.39H401.2V98.71Z" fill="#F0F0F0"/>
<path d="M409.42 327.4H385.37C385.37 326.041 385.909 324.738 386.869 323.776C387.829 322.814 389.131 322.273 390.49 322.27H404.3C405.659 322.273 406.961 322.814 407.921 323.776C408.881 324.738 409.42 326.041 409.42 327.4V327.4Z" fill="#F0F0F0"/>
<path d="M401.2 98.71H393.6V103.35H401.2V98.71Z" fill="#E0E0E0"/>
<path d="M388.58 219.33C387.97 219.33 387.36 219.33 386.74 219.39C382.888 219.658 379.143 220.776 375.775 222.664C372.406 224.552 369.498 227.162 367.258 230.308C365.019 233.454 363.504 237.056 362.824 240.857C362.143 244.658 362.312 248.563 363.32 252.29C366.173 263.418 367.551 274.873 367.42 286.36V319.82C367.419 320.397 367.531 320.968 367.751 321.502C367.972 322.035 368.295 322.519 368.703 322.927C369.111 323.335 369.595 323.658 370.128 323.879C370.662 324.099 371.233 324.211 371.81 324.21H443.81V219.33H388.58Z" fill="#F0F0F0"/>
<path d="M470 245.48C469.999 241.755 469.202 238.073 467.664 234.681C466.125 231.289 463.88 228.264 461.078 225.81C458.276 223.355 454.983 221.528 451.418 220.449C447.852 219.37 444.098 219.065 440.405 219.554C436.713 220.043 433.167 221.315 430.006 223.284C426.844 225.254 424.14 227.876 422.074 230.976C420.008 234.075 418.627 237.58 418.024 241.255C417.422 244.931 417.611 248.693 418.58 252.29C421.433 263.418 422.811 274.873 422.68 286.36V319.82C422.679 320.397 422.791 320.968 423.011 321.501C423.232 322.035 423.555 322.519 423.963 322.927C424.371 323.335 424.855 323.658 425.388 323.878C425.922 324.099 426.493 324.211 427.07 324.21H460.61C461.774 324.21 462.891 323.747 463.714 322.924C464.537 322.101 465 320.984 465 319.82V284.4C464.886 273.625 466.231 262.884 469 252.47C469.65 250.196 469.986 247.845 470 245.48V245.48Z" fill="#F5F5F5"/>
<path d="M430.56 260.53H311.3V324.21H430.56V260.53Z" fill="#F0F0F0"/>
<path d="M355.84 177.1H267.84C265.304 177.054 262.787 177.549 260.456 178.55C258.126 179.552 256.035 181.038 254.324 182.91C252.612 184.782 251.318 186.996 250.527 189.407C249.737 191.817 249.469 194.368 249.74 196.89L256.44 274.89H384L377.3 196.89C376.761 191.538 374.279 186.569 370.325 182.923C366.371 179.276 361.218 177.205 355.84 177.1V177.1Z" fill="#E0E0E0"/>
<path d="M381.72 177.1H291.82C289.405 177.053 287.007 177.521 284.787 178.474C282.567 179.426 280.575 180.841 278.945 182.624C277.315 184.407 276.083 186.516 275.332 188.812C274.581 191.109 274.328 193.538 274.59 195.94L281.38 274.94H409L402.21 195.94C401.7 190.833 399.331 186.091 395.553 182.618C391.775 179.144 386.852 177.18 381.72 177.1V177.1Z" fill="#F5F5F5"/>
<path d="M313.26 254.72H428.54C430.277 254.72 431.943 255.41 433.172 256.638C434.4 257.867 435.09 259.533 435.09 261.27V274.1C435.09 275.837 434.4 277.503 433.172 278.732C431.943 279.96 430.277 280.65 428.54 280.65H313.26C312.73 280.65 312.221 280.439 311.846 280.064C311.471 279.689 311.26 279.18 311.26 278.65V256.65C311.278 256.132 311.497 255.641 311.87 255.281C312.243 254.921 312.741 254.72 313.26 254.72V254.72Z" fill="#E0E0E0"/>
<path d="M247.05 219.33C246.437 219.33 245.827 219.35 245.22 219.39C241.369 219.662 237.626 220.782 234.259 222.671C230.892 224.56 227.985 227.17 225.746 230.314C223.506 233.459 221.99 237.06 221.306 240.859C220.622 244.658 220.788 248.562 221.79 252.29C224.647 263.417 226.026 274.873 225.89 286.36V319.82C225.89 320.984 226.353 322.101 227.176 322.924C227.999 323.748 229.116 324.21 230.28 324.21H302.28V219.33H247.05Z" fill="#F0F0F0"/>
<path d="M328.44 245.48C328.428 241.762 327.624 238.088 326.081 234.705C324.538 231.322 322.291 228.307 319.49 225.861C316.69 223.415 313.4 221.593 309.841 220.519C306.281 219.444 302.533 219.141 298.847 219.629C295.161 220.117 291.621 221.385 288.463 223.349C285.306 225.313 282.603 227.927 280.536 231.018C278.469 234.109 277.084 237.605 276.474 241.273C275.864 244.941 276.044 248.697 277 252.29C279.857 263.417 281.236 274.872 281.1 286.36V319.82C281.1 320.397 281.214 320.969 281.435 321.502C281.656 322.036 281.981 322.52 282.389 322.928C282.798 323.335 283.283 323.659 283.817 323.879C284.351 324.099 284.923 324.211 285.5 324.21H319.03C319.607 324.211 320.178 324.099 320.712 323.878C321.245 323.658 321.729 323.335 322.137 322.927C322.545 322.519 322.868 322.035 323.089 321.501C323.309 320.968 323.421 320.397 323.42 319.82V284.4C323.326 273.622 324.691 262.881 327.48 252.47C328.112 250.193 328.434 247.842 328.44 245.48V245.48Z" fill="#F5F5F5"/>
<path d="M430.54 327.4H248.92C248.074 327.4 247.263 327.064 246.664 326.466C246.066 325.867 245.73 325.056 245.73 324.21H433.73C433.73 325.056 433.394 325.867 432.796 326.466C432.197 327.064 431.386 327.4 430.54 327.4Z" fill="#E0E0E0"/>
<path d="M68.03 34.8301H46.11V327.4H68.03V34.8301Z" fill="#E6E6E6"/>
<path d="M68.02 327.4H260.39L260.39 34.8299H68.02L68.02 327.4Z" fill="#F5F5F5"/>
<path d="M256.8 327.4V39.1399L71.6201 39.1399L71.6201 327.4H256.8Z" fill="#E6E6E6"/>
<path d="M87.12 327.4L87.12 39.1399H71.62L71.62 327.4H87.12Z" fill="#E0E0E0"/>
<path d="M258.75 276.01V271.71H71.62V276.01H258.75Z" fill="#F5F5F5"/>
<path d="M258.75 215.61V211.31H71.62V215.61H258.75Z" fill="#F5F5F5"/>
<path d="M258.75 155.22V150.91H71.62V155.22H258.75Z" fill="#F5F5F5"/>
<path d="M258.75 94.81V90.51L71.62 90.51V94.81L258.75 94.81Z" fill="#F5F5F5"/>
<path d="M88.12 90.52H115.95V49.49H88.12V90.52Z" fill="#FAFAFA"/>
<path d="M118.91 49.48H113.57C112.731 49.48 112.05 50.1605 112.05 51V88.99C112.05 89.8295 112.731 90.51 113.57 90.51H118.91C119.749 90.51 120.43 89.8295 120.43 88.99V51C120.43 50.1605 119.749 49.48 118.91 49.48Z" fill="#F0F0F0"/>
<path d="M78.74 90.52H106.57V49.49H78.74V90.52Z" fill="#FAFAFA"/>
<path d="M109.55 49.48H104.21C103.371 49.48 102.69 50.1605 102.69 51V88.99C102.69 89.8295 103.371 90.51 104.21 90.51H109.55C110.389 90.51 111.07 89.8295 111.07 88.99V51C111.07 50.1605 110.389 49.48 109.55 49.48Z" fill="#E6E6E6"/>
<path d="M71.62 49.48H95.64L93.73 90.52H71.62V49.48Z" fill="#FAFAFA"/>
<path d="M98.74 49.48H93.13C92.7217 49.5203 92.3439 49.7141 92.0729 50.0222C91.8019 50.3304 91.6579 50.7298 91.67 51.14L89.91 88.86C89.8835 89.0555 89.8967 89.2544 89.9487 89.4448C90.0007 89.6351 90.0905 89.8131 90.2128 89.968C90.335 90.1229 90.4872 90.2516 90.6603 90.3464C90.8333 90.4413 91.0237 90.5003 91.22 90.52H96.83C97.2366 90.4752 97.6117 90.2801 97.8818 89.973C98.1519 89.6658 98.2975 89.2689 98.29 88.86L100.05 51.14C100.078 50.9442 100.066 50.7448 100.014 50.5539C99.963 50.363 99.8733 50.1845 99.7508 50.0292C99.6283 49.874 99.4755 49.7453 99.3018 49.6509C99.128 49.5564 98.9369 49.4983 98.74 49.48V49.48Z" fill="#F0F0F0"/>
<path d="M216.82 90.51H237.92V55.87H216.82V90.51Z" fill="#FAFAFA"/>
<path d="M240.11 55.8799H236.18C235.512 55.8799 234.97 56.4216 234.97 57.0899V89.3099C234.97 89.9781 235.512 90.5199 236.18 90.5199H240.11C240.778 90.5199 241.32 89.9781 241.32 89.3099V57.0899C241.32 56.4216 240.778 55.8799 240.11 55.8799Z" fill="#F0F0F0"/>
<path d="M209.71 90.51H230.81V55.87H209.71V90.51Z" fill="#FAFAFA"/>
<path d="M233.01 55.8799H229.08C228.412 55.8799 227.87 56.4216 227.87 57.0899V89.3099C227.87 89.9781 228.412 90.5199 229.08 90.5199H233.01C233.678 90.5199 234.22 89.9781 234.22 89.3099V57.0899C234.22 56.4216 233.678 55.8799 233.01 55.8799Z" fill="#E6E6E6"/>
<path d="M204.31 55.8799H222.52L221.07 90.5199H204.31V55.8799Z" fill="#FAFAFA"/>
<path d="M224.87 55.8799H220.62C220.04 55.8799 219.55 56.5099 219.51 57.2799L218.18 89.1199C218.18 89.8899 218.59 90.5199 219.18 90.5199H223.44C224.02 90.5199 224.51 89.8899 224.54 89.1199L225.88 57.2799C225.9 56.5099 225.45 55.8799 224.87 55.8799Z" fill="#F0F0F0"/>
<path d="M189.61 90.51H210.71V55.87H189.61V90.51Z" fill="#FAFAFA"/>
<path d="M212.9 55.8799H208.97C208.302 55.8799 207.76 56.4216 207.76 57.0899V89.3099C207.76 89.9781 208.302 90.5199 208.97 90.5199H212.9C213.568 90.5199 214.11 89.9781 214.11 89.3099V57.0899C214.11 56.4216 213.568 55.8799 212.9 55.8799Z" fill="#F0F0F0"/>
<path d="M182.51 90.51H203.61V55.87H182.51V90.51Z" fill="#FAFAFA"/>
<path d="M205.8 55.8799H201.87C201.202 55.8799 200.66 56.4216 200.66 57.0899V89.3099C200.66 89.9781 201.202 90.5199 201.87 90.5199H205.8C206.468 90.5199 207.01 89.9781 207.01 89.3099V57.0899C207.01 56.4216 206.468 55.8799 205.8 55.8799Z" fill="#E6E6E6"/>
<path d="M177.11 55.8799H195.31L193.87 90.5199H177.11V55.8799Z" fill="#FAFAFA"/>
<path d="M197.67 55.8799H193.41C192.83 55.8799 192.34 56.5099 192.31 57.2799L191 89.1199C191 89.8899 191.42 90.5199 192 90.5199H196.25C196.83 90.5199 197.32 89.8899 197.36 89.1199L198.69 57.2799C198.69 56.5099 198.25 55.8799 197.67 55.8799Z" fill="#F0F0F0"/>
<path d="M149.86 90.52H164.57V53.29H149.86V90.52Z" fill="#FAFAFA"/>
<path d="M165.9 53.28H163.57C162.99 53.28 162.52 53.7501 162.52 54.33V89.46C162.52 90.0399 162.99 90.51 163.57 90.51H165.9C166.48 90.51 166.95 90.0399 166.95 89.46V54.33C166.95 53.7501 166.48 53.28 165.9 53.28Z" fill="#F0F0F0"/>
<path d="M137.61 90.52H153.82V49.49H137.61V90.52Z" fill="#FAFAFA"/>
<path d="M155.28 49.48H152.72C152.079 49.48 151.56 49.9993 151.56 50.64V89.35C151.56 89.9906 152.079 90.51 152.72 90.51H155.28C155.921 90.51 156.44 89.9906 156.44 89.35V50.64C156.44 49.9993 155.921 49.48 155.28 49.48Z" fill="#F5F5F5"/>
<path d="M133.46 49.48H147.45L146.34 90.52H133.46V49.48Z" fill="#FAFAFA"/>
<path d="M149.26 49.48H146C145.56 49.48 145.17 50.22 145.15 51.14L144.15 88.86C144.15 89.77 144.46 90.52 144.91 90.52H148.18C148.62 90.52 149 89.77 149.03 88.86L150.03 51.14C150 50.22 149.7 49.48 149.26 49.48Z" fill="#F0F0F0"/>
<path d="M162.21 150.92H190.04V109.89H162.21V150.92Z" fill="#FAFAFA"/>
<path d="M193.01 109.88H187.67C186.831 109.88 186.15 110.56 186.15 111.4V149.39C186.15 150.229 186.831 150.91 187.67 150.91H193.01C193.849 150.91 194.53 150.229 194.53 149.39V111.4C194.53 110.56 193.849 109.88 193.01 109.88Z" fill="#F0F0F0"/>
<path d="M152.85 150.92H180.68V109.89H152.85V150.92Z" fill="#FAFAFA"/>
<path d="M183.64 109.88H178.3C177.461 109.88 176.78 110.56 176.78 111.4V149.39C176.78 150.229 177.461 150.91 178.3 150.91H183.64C184.48 150.91 185.16 150.229 185.16 149.39V111.4C185.16 110.56 184.48 109.88 183.64 109.88Z" fill="#E6E6E6"/>
<path d="M145.72 109.88H169.73L167.82 150.92H145.72V109.88Z" fill="#FAFAFA"/>
<path d="M172.84 109.88H167.23C166.822 109.92 166.444 110.114 166.173 110.422C165.902 110.73 165.758 111.13 165.77 111.54L164 149.26C163.972 149.456 163.984 149.655 164.036 149.846C164.087 150.037 164.177 150.215 164.299 150.371C164.422 150.526 164.574 150.655 164.748 150.749C164.922 150.843 165.113 150.902 165.31 150.92H170.92C171.327 150.875 171.702 150.68 171.972 150.373C172.242 150.066 172.387 149.669 172.38 149.26L174.13 111.54C174.159 111.345 174.149 111.147 174.099 110.957C174.05 110.766 173.962 110.588 173.841 110.433C173.721 110.278 173.57 110.149 173.397 110.054C173.225 109.958 173.036 109.899 172.84 109.88V109.88Z" fill="#F0F0F0"/>
<path d="M204.87 150.91H221.92V116.27H204.87V150.91Z" fill="#FAFAFA"/>
<path d="M223.58 116.28H220.63C220.028 116.28 219.54 116.768 219.54 117.37V149.83C219.54 150.432 220.028 150.92 220.63 150.92H223.58C224.182 150.92 224.67 150.432 224.67 149.83V117.37C224.67 116.768 224.182 116.28 223.58 116.28Z" fill="#F0F0F0"/>
<path d="M199.13 150.91H216.18V116.27H199.13V150.91Z" fill="#FAFAFA"/>
<path d="M217.84 116.28H214.89C214.288 116.28 213.8 116.768 213.8 117.37V149.83C213.8 150.432 214.288 150.92 214.89 150.92H217.84C218.442 150.92 218.93 150.432 218.93 149.83V117.37C218.93 116.768 218.442 116.28 217.84 116.28Z" fill="#E6E6E6"/>
<path d="M194.76 116.28H209.48L208.31 150.92H194.76V116.28Z" fill="#FAFAFA"/>
<path d="M211.38 116.28H207.94C207.47 116.28 207.07 116.91 207.05 117.68L206 149.52C206 150.29 206.33 150.92 206.8 150.92H210.24C210.71 150.92 211.11 150.29 211.13 149.52L212.21 117.68C212.21 116.91 211.85 116.28 211.38 116.28Z" fill="#F0F0F0"/>
<path d="M233.32 150.92H247.44V122.23H233.32V150.92Z" fill="#FAFAFA"/>
<path d="M248.81 122.22H246.36C245.863 122.22 245.46 122.623 245.46 123.12V150.01C245.46 150.507 245.863 150.91 246.36 150.91H248.81C249.307 150.91 249.71 150.507 249.71 150.01V123.12C249.71 122.623 249.307 122.22 248.81 122.22Z" fill="#F0F0F0"/>
<path d="M228.56 150.92H242.68V122.23H228.56V150.92Z" fill="#FAFAFA"/>
<path d="M244.06 122.22H241.61C241.113 122.22 240.71 122.623 240.71 123.12V150.01C240.71 150.507 241.113 150.91 241.61 150.91H244.06C244.557 150.91 244.96 150.507 244.96 150.01V123.12C244.96 122.623 244.557 122.22 244.06 122.22Z" fill="#E6E6E6"/>
<path d="M224.94 122.22H237.13L236.16 150.92H224.94V122.22Z" fill="#FAFAFA"/>
<path d="M238.71 122.22H235.86C235.47 122.22 235.14 122.74 235.12 123.38L234.23 149.76C234.23 150.4 234.5 150.92 234.89 150.92H237.74C238.12 150.92 238.46 150.4 238.48 149.76L239.37 123.38C239.39 122.74 239.09 122.22 238.71 122.22Z" fill="#F0F0F0"/>
<path d="M117.6 150.91H138.7V116.27H117.6V150.91Z" fill="#FAFAFA"/>
<path d="M140.9 116.28H136.97C136.302 116.28 135.76 116.822 135.76 117.49V149.71C135.76 150.378 136.302 150.92 136.97 150.92H140.9C141.568 150.92 142.11 150.378 142.11 149.71V117.49C142.11 116.822 141.568 116.28 140.9 116.28Z" fill="#F0F0F0"/>
<path d="M110.51 150.91H131.61V116.27H110.51V150.91Z" fill="#FAFAFA"/>
<path d="M133.79 116.28H129.86C129.192 116.28 128.65 116.822 128.65 117.49V149.71C128.65 150.378 129.192 150.92 129.86 150.92H133.79C134.458 150.92 135 150.378 135 149.71V117.49C135 116.822 134.458 116.28 133.79 116.28Z" fill="#E6E6E6"/>
<path d="M105.1 116.28H123.31L121.86 150.92H105.1V116.28Z" fill="#FAFAFA"/>
<path d="M125.66 116.28H121.41C121.084 116.334 120.79 116.507 120.585 116.766C120.38 117.025 120.278 117.351 120.3 117.68L119 149.52C119 150.29 119.41 150.92 120 150.92H124.25C124.576 150.866 124.87 150.693 125.075 150.434C125.28 150.175 125.382 149.85 125.36 149.52L126.69 117.68C126.69 116.91 126.24 116.28 125.66 116.28Z" fill="#F0F0F0"/>
<path d="M88.02 150.92H102.73V113.69H88.02V150.92Z" fill="#FAFAFA"/>
<path d="M104.05 113.68H101.72C101.14 113.68 100.67 114.15 100.67 114.73V149.86C100.67 150.44 101.14 150.91 101.72 150.91H104.05C104.63 150.91 105.1 150.44 105.1 149.86V114.73C105.1 114.15 104.63 113.68 104.05 113.68Z" fill="#F0F0F0"/>
<path d="M75.77 150.92H91.98V109.89H75.77V150.92Z" fill="#FAFAFA"/>
<path d="M93.43 109.88H90.87C90.2294 109.88 89.71 110.399 89.71 111.04V149.75C89.71 150.391 90.2294 150.91 90.87 150.91H93.43C94.0707 150.91 94.59 150.391 94.59 149.75V111.04C94.59 110.399 94.0707 109.88 93.43 109.88Z" fill="#F5F5F5"/>
<path d="M71.62 109.88H85.61L84.5 150.92H71.62V109.88Z" fill="#FAFAFA"/>
<path d="M87.42 109.88H84.15C83.7 109.88 83.32 110.62 83.3 111.54L82.3 149.26C82.3 150.17 82.62 150.92 83.07 150.92H86.3C86.75 150.92 87.13 150.17 87.15 149.26L88.15 111.54C88.2 110.62 87.86 109.88 87.42 109.88Z" fill="#F0F0F0"/>
<path d="M88.12 211.32H115.95V170.29H88.12V211.32Z" fill="#FAFAFA"/>
<path d="M118.91 170.28H113.57C112.731 170.28 112.05 170.961 112.05 171.8V209.79C112.05 210.63 112.731 211.31 113.57 211.31H118.91C119.749 211.31 120.43 210.63 120.43 209.79V171.8C120.43 170.961 119.749 170.28 118.91 170.28Z" fill="#F0F0F0"/>
<path d="M78.74 211.32H106.57V170.29H78.74V211.32Z" fill="#FAFAFA"/>
<path d="M109.55 170.28H104.21C103.371 170.28 102.69 170.961 102.69 171.8V209.79C102.69 210.63 103.371 211.31 104.21 211.31H109.55C110.389 211.31 111.07 210.63 111.07 209.79V171.8C111.07 170.961 110.389 170.28 109.55 170.28Z" fill="#E6E6E6"/>
<path d="M71.62 170.28H95.64L93.73 211.32H71.62V170.28Z" fill="#FAFAFA"/>
<path d="M98.74 170.28H93.13C92.7217 170.32 92.3439 170.514 92.0729 170.822C91.8019 171.13 91.6579 171.53 91.67 171.94L89.91 209.66C89.8835 209.856 89.8967 210.054 89.9487 210.245C90.0007 210.435 90.0905 210.613 90.2128 210.768C90.335 210.923 90.4872 211.052 90.6603 211.146C90.8333 211.241 91.0237 211.3 91.22 211.32H96.83C97.2366 211.275 97.6117 211.08 97.8818 210.773C98.1519 210.466 98.2975 210.069 98.29 209.66L100.05 171.94C100.078 171.744 100.066 171.545 100.014 171.354C99.963 171.163 99.8733 170.985 99.7508 170.829C99.6283 170.674 99.4755 170.545 99.3018 170.451C99.128 170.356 98.9369 170.298 98.74 170.28V170.28Z" fill="#F0F0F0"/>
<path d="M216.82 211.31H237.92V176.67H216.82V211.31Z" fill="#FAFAFA"/>
<path d="M240.11 176.68H236.18C235.512 176.68 234.97 177.222 234.97 177.89V210.11C234.97 210.778 235.512 211.32 236.18 211.32H240.11C240.778 211.32 241.32 210.778 241.32 210.11V177.89C241.32 177.222 240.778 176.68 240.11 176.68Z" fill="#F0F0F0"/>
<path d="M209.71 211.31H230.81V176.67H209.71V211.31Z" fill="#FAFAFA"/>
<path d="M233.01 176.68H229.08C228.412 176.68 227.87 177.222 227.87 177.89V210.11C227.87 210.778 228.412 211.32 229.08 211.32H233.01C233.678 211.32 234.22 210.778 234.22 210.11V177.89C234.22 177.222 233.678 176.68 233.01 176.68Z" fill="#E6E6E6"/>
<path d="M204.31 176.68H222.52L221.07 211.32H204.31V176.68Z" fill="#FAFAFA"/>
<path d="M224.87 176.68H220.62C220.04 176.68 219.55 177.31 219.51 178.08L218.18 209.92C218.18 210.69 218.59 211.32 219.18 211.32H223.44C224.02 211.32 224.51 210.69 224.54 209.92L225.88 178.08C225.9 177.31 225.45 176.68 224.87 176.68Z" fill="#F0F0F0"/>
<path d="M189.61 211.31H210.71V176.67H189.61V211.31Z" fill="#FAFAFA"/>
<path d="M212.9 176.68H208.97C208.302 176.68 207.76 177.222 207.76 177.89V210.11C207.76 210.778 208.302 211.32 208.97 211.32H212.9C213.568 211.32 214.11 210.778 214.11 210.11V177.89C214.11 177.222 213.568 176.68 212.9 176.68Z" fill="#F0F0F0"/>
<path d="M182.51 211.31H203.61V176.67H182.51V211.31Z" fill="#FAFAFA"/>
<path d="M205.8 176.68H201.87C201.202 176.68 200.66 177.222 200.66 177.89V210.11C200.66 210.778 201.202 211.32 201.87 211.32H205.8C206.468 211.32 207.01 210.778 207.01 210.11V177.89C207.01 177.222 206.468 176.68 205.8 176.68Z" fill="#E6E6E6"/>
<path d="M177.11 176.68H195.31L193.87 211.32H177.11V176.68Z" fill="#FAFAFA"/>
<path d="M197.67 176.68H193.41C192.83 176.68 192.34 177.31 192.31 178.08L191 209.92C191 210.69 191.42 211.32 192 211.32H196.25C196.83 211.32 197.32 210.69 197.36 209.92L198.69 178.08C198.69 177.31 198.25 176.68 197.67 176.68Z" fill="#F0F0F0"/>
<path d="M149.86 211.32H164.57V174.09H149.86V211.32Z" fill="#FAFAFA"/>
<path d="M165.9 174.08H163.57C162.99 174.08 162.52 174.55 162.52 175.13V210.26C162.52 210.84 162.99 211.31 163.57 211.31H165.9C166.48 211.31 166.95 210.84 166.95 210.26V175.13C166.95 174.55 166.48 174.08 165.9 174.08Z" fill="#F0F0F0"/>
<path d="M137.61 211.32H153.82V170.29H137.61V211.32Z" fill="#FAFAFA"/>
<path d="M155.28 170.28H152.72C152.079 170.28 151.56 170.799 151.56 171.44V210.15C151.56 210.791 152.079 211.31 152.72 211.31H155.28C155.921 211.31 156.44 210.791 156.44 210.15V171.44C156.44 170.799 155.921 170.28 155.28 170.28Z" fill="#F5F5F5"/>
<path d="M133.46 170.28H147.45L146.34 211.32H133.46V170.28Z" fill="#FAFAFA"/>
<path d="M149.26 170.28H146C145.56 170.28 145.17 171.02 145.15 171.94L144.15 209.66C144.15 210.57 144.46 211.32 144.91 211.32H148.18C148.62 211.32 149 210.57 149.03 209.66L150.03 171.94C150 171 149.7 170.28 149.26 170.28Z" fill="#F0F0F0"/>
<path d="M82.18 327.4H100.01V286.37H82.18V327.4Z" fill="#FAFAFA"/>
<path d="M101.68 286.36H98.73C98.0618 286.36 97.52 286.902 97.52 287.57V326.18C97.52 326.848 98.0618 327.39 98.73 327.39H101.68C102.348 327.39 102.89 326.848 102.89 326.18V287.57C102.89 286.902 102.348 286.36 101.68 286.36Z" fill="#F0F0F0"/>
<path d="M76.19 327.4H94.02V286.37H76.19V327.4Z" fill="#FAFAFA"/>
<path d="M95.68 286.36H92.73C92.0618 286.36 91.52 286.902 91.52 287.57V326.18C91.52 326.848 92.0618 327.39 92.73 327.39H95.68C96.3483 327.39 96.89 326.848 96.89 326.18V287.57C96.89 286.902 96.3483 286.36 95.68 286.36Z" fill="#E6E6E6"/>
<path d="M71.62 286.37H87L85.78 327.4H71.62V286.37Z" fill="#FAFAFA"/>
<path d="M89 286.36H85.4C84.91 286.36 84.49 287.11 84.46 288.02L83.34 325.74C83.34 326.66 83.69 327.4 84.18 327.4H87.77C88.26 327.4 88.68 326.66 88.71 325.74L89.83 288C89.86 287.11 89.48 286.36 89 286.36Z" fill="#F0F0F0"/>
<path d="M231.36 327.4H249.95V292.76H231.36V327.4Z" fill="#FAFAFA"/>
<path d="M251.81 292.76H248.49C247.86 292.76 247.35 293.27 247.35 293.9V326.26C247.35 326.89 247.86 327.4 248.49 327.4H251.81C252.44 327.4 252.95 326.89 252.95 326.26V293.9C252.95 293.27 252.44 292.76 251.81 292.76Z" fill="#F0F0F0"/>
<path d="M225.1 327.4H243.69V292.76H225.1V327.4Z" fill="#FAFAFA"/>
<path d="M245.55 292.76H242.23C241.6 292.76 241.09 293.27 241.09 293.9V326.26C241.09 326.89 241.6 327.4 242.23 327.4H245.55C246.18 327.4 246.69 326.89 246.69 326.26V293.9C246.69 293.27 246.18 292.76 245.55 292.76Z" fill="#E6E6E6"/>
<path d="M220.34 292.76H236.38L235.1 327.4H220.34V292.76Z" fill="#FAFAFA"/>
<path d="M238.46 292.76H234.71C234.2 292.76 233.71 293.39 233.71 294.16L232.56 326C232.56 326.77 232.92 327.4 233.43 327.4H237.18C237.69 327.4 238.13 326.77 238.18 326L239.35 294.16C239.36 293.39 239 292.76 238.46 292.76Z" fill="#F0F0F0"/>
<path d="M207.38 327.4H225.97V292.76H207.38V327.4Z" fill="#FAFAFA"/>
<path d="M227.83 292.76H224.51C223.88 292.76 223.37 293.27 223.37 293.9V326.26C223.37 326.89 223.88 327.4 224.51 327.4H227.83C228.46 327.4 228.97 326.89 228.97 326.26V293.9C228.97 293.27 228.46 292.76 227.83 292.76Z" fill="#F0F0F0"/>
<path d="M201.12 327.4H219.71V292.76H201.12V327.4Z" fill="#FAFAFA"/>
<path d="M221.57 292.76H218.25C217.62 292.76 217.11 293.27 217.11 293.9V326.26C217.11 326.89 217.62 327.4 218.25 327.4H221.57C222.2 327.4 222.71 326.89 222.71 326.26V293.9C222.71 293.27 222.2 292.76 221.57 292.76Z" fill="#E6E6E6"/>
<path d="M196.36 292.76H212.4L211.13 327.4H196.36V292.76Z" fill="#FAFAFA"/>
<path d="M214.48 292.76H210.73C210.22 292.76 209.78 293.39 209.73 294.16L208.58 326C208.58 326.77 208.94 327.4 209.45 327.4H213.2C213.71 327.4 214.2 326.77 214.2 326L215.37 294.16C215.38 293.39 215 292.76 214.48 292.76Z" fill="#F0F0F0"/>
<path d="M188.29 327.4H201.25V290.17H188.29V327.4Z" fill="#FAFAFA"/>
<path d="M200.43 290.17H202.36C202.625 290.17 202.88 290.275 203.067 290.463C203.255 290.65 203.36 290.905 203.36 291.17V326.43C203.36 326.695 203.255 326.949 203.067 327.137C202.88 327.325 202.625 327.43 202.36 327.43H200.43C200.165 327.43 199.91 327.325 199.723 327.137C199.535 326.949 199.43 326.695 199.43 326.43V291.15C199.435 290.888 199.543 290.639 199.73 290.456C199.917 290.272 200.168 290.17 200.43 290.17V290.17Z" fill="#F0F0F0"/>
<path d="M177.5 327.4H191.78V286.37H177.5V327.4Z" fill="#FAFAFA"/>
<path d="M192.99 286.36H190.87C190.268 286.36 189.78 286.848 189.78 287.45V326.3C189.78 326.902 190.268 327.39 190.87 327.39H192.99C193.592 327.39 194.08 326.902 194.08 326.3V287.45C194.08 286.848 193.592 286.36 192.99 286.36Z" fill="#F5F5F5"/>
<path d="M173.84 286.37H186.17L185.19 327.4H173.84V286.37Z" fill="#FAFAFA"/>
<path d="M187.76 286.36H184.88C184.49 286.36 184.15 287.11 184.13 288.02L183.23 325.74C183.23 326.66 183.51 327.4 183.9 327.4H186.78C187.17 327.4 187.51 326.66 187.53 325.74L188.43 288.02C188.45 287.11 188.15 286.36 187.76 286.36Z" fill="#F0F0F0"/>
<path d="M162.21 271.72H190.04V230.69H162.21V271.72Z" fill="#FAFAFA"/>
<path d="M193.01 230.68H187.67C186.831 230.68 186.15 231.36 186.15 232.2V270.19C186.15 271.029 186.831 271.71 187.67 271.71H193.01C193.849 271.71 194.53 271.029 194.53 270.19V232.2C194.53 231.36 193.849 230.68 193.01 230.68Z" fill="#F0F0F0"/>
<path d="M152.85 271.72H180.68V230.69H152.85V271.72Z" fill="#FAFAFA"/>
<path d="M183.64 230.68H178.3C177.461 230.68 176.78 231.36 176.78 232.2V270.19C176.78 271.029 177.461 271.71 178.3 271.71H183.64C184.48 271.71 185.16 271.029 185.16 270.19V232.2C185.16 231.36 184.48 230.68 183.64 230.68Z" fill="#E6E6E6"/>
<path d="M145.72 230.68H169.73L167.82 271.72H145.72V230.68Z" fill="#FAFAFA"/>
<path d="M172.84 230.68H167.23C166.823 230.723 166.446 230.917 166.176 231.225C165.905 231.532 165.76 231.93 165.77 232.34L164 270.06C163.972 270.256 163.984 270.455 164.036 270.646C164.087 270.837 164.177 271.015 164.299 271.171C164.422 271.326 164.574 271.455 164.748 271.549C164.922 271.643 165.113 271.702 165.31 271.72H170.92C171.327 271.675 171.702 271.48 171.972 271.173C172.242 270.866 172.387 270.469 172.38 270.06L174.13 232.34C174.158 232.146 174.147 231.948 174.096 231.758C174.046 231.568 173.958 231.391 173.838 231.236C173.717 231.081 173.567 230.952 173.395 230.856C173.224 230.761 173.035 230.701 172.84 230.68V230.68Z" fill="#F0F0F0"/>
<path d="M204.87 271.71H221.92V237.07H204.87V271.71Z" fill="#FAFAFA"/>
<path d="M223.58 237.08H220.63C220.028 237.08 219.54 237.568 219.54 238.17V270.63C219.54 271.232 220.028 271.72 220.63 271.72H223.58C224.182 271.72 224.67 271.232 224.67 270.63V238.17C224.67 237.568 224.182 237.08 223.58 237.08Z" fill="#F0F0F0"/>
<path d="M199.13 271.71H216.18V237.07H199.13V271.71Z" fill="#FAFAFA"/>
<path d="M217.84 237.08H214.89C214.288 237.08 213.8 237.568 213.8 238.17V270.63C213.8 271.232 214.288 271.72 214.89 271.72H217.84C218.442 271.72 218.93 271.232 218.93 270.63V238.17C218.93 237.568 218.442 237.08 217.84 237.08Z" fill="#E6E6E6"/>
<path d="M194.76 237.08H209.48L208.31 271.72H194.76V237.08Z" fill="#FAFAFA"/>
<path d="M211.38 237.08H207.94C207.47 237.08 207.07 237.71 207.05 238.48L206 270.32C206 271.09 206.33 271.72 206.8 271.72H210.24C210.71 271.72 211.11 271.09 211.13 270.32L212.21 238.48C212.21 237.71 211.85 237.08 211.38 237.08Z" fill="#F0F0F0"/>
<path d="M233.32 271.72H247.44V243.03H233.32V271.72Z" fill="#FAFAFA"/>
<path d="M248.81 243.02H246.36C245.863 243.02 245.46 243.423 245.46 243.92V270.81C245.46 271.307 245.863 271.71 246.36 271.71H248.81C249.307 271.71 249.71 271.307 249.71 270.81V243.92C249.71 243.423 249.307 243.02 248.81 243.02Z" fill="#F0F0F0"/>
<path d="M228.56 271.72H242.68V243.03H228.56V271.72Z" fill="#FAFAFA"/>
<path d="M244.06 243.02H241.61C241.113 243.02 240.71 243.423 240.71 243.92V270.81C240.71 271.307 241.113 271.71 241.61 271.71H244.06C244.557 271.71 244.96 271.307 244.96 270.81V243.92C244.96 243.423 244.557 243.02 244.06 243.02Z" fill="#E6E6E6"/>
<path d="M224.94 243.02H237.13L236.16 271.72H224.94V243.02Z" fill="#FAFAFA"/>
<path d="M238.71 243H235.86C235.47 243 235.14 243.52 235.12 244.16L234.23 270.54C234.23 271.18 234.5 271.7 234.89 271.7H237.74C238.12 271.7 238.46 271.18 238.48 270.54L239.37 244.16C239.39 243.54 239.09 243 238.71 243Z" fill="#F0F0F0"/>
<path d="M117.6 271.71H138.7V237.07H117.6V271.71Z" fill="#FAFAFA"/>
<path d="M140.9 237.08H136.97C136.302 237.08 135.76 237.622 135.76 238.29V270.51C135.76 271.178 136.302 271.72 136.97 271.72H140.9C141.568 271.72 142.11 271.178 142.11 270.51V238.29C142.11 237.622 141.568 237.08 140.9 237.08Z" fill="#F0F0F0"/>
<path d="M110.51 271.71H131.61V237.07H110.51V271.71Z" fill="#FAFAFA"/>
<path d="M133.79 237.08H129.86C129.192 237.08 128.65 237.622 128.65 238.29V270.51C128.65 271.178 129.192 271.72 129.86 271.72H133.79C134.458 271.72 135 271.178 135 270.51V238.29C135 237.622 134.458 237.08 133.79 237.08Z" fill="#E6E6E6"/>
<path d="M105.1 237.08H123.31L121.86 271.72H105.1V237.08Z" fill="#FAFAFA"/>
<path d="M125.66 237.08H121.41C121.084 237.134 120.79 237.307 120.585 237.566C120.38 237.825 120.278 238.151 120.3 238.48L119 270.32C119 271.09 119.41 271.72 120 271.72H124.25C124.576 271.666 124.87 271.493 125.075 271.234C125.28 270.975 125.382 270.65 125.36 270.32L126.69 238.48C126.69 237.71 126.24 237.08 125.66 237.08Z" fill="#F0F0F0"/>
<path d="M88.02 271.72H102.73V234.49H88.02V271.72Z" fill="#FAFAFA"/>
<path d="M104.05 234.48H101.72C101.14 234.48 100.67 234.95 100.67 235.53V270.66C100.67 271.24 101.14 271.71 101.72 271.71H104.05C104.63 271.71 105.1 271.24 105.1 270.66V235.53C105.1 234.95 104.63 234.48 104.05 234.48Z" fill="#F0F0F0"/>
<path d="M75.77 271.72H91.98V230.69H75.77V271.72Z" fill="#FAFAFA"/>
<path d="M93.43 230.68H90.87C90.2294 230.68 89.71 231.199 89.71 231.84V270.55C89.71 271.191 90.2294 271.71 90.87 271.71H93.43C94.0707 271.71 94.59 271.191 94.59 270.55V231.84C94.59 231.199 94.0707 230.68 93.43 230.68Z" fill="#F5F5F5"/>
<path d="M71.62 230.68H85.61L84.5 271.72H71.62V230.68Z" fill="#FAFAFA"/>
<path d="M87.42 230.68H84.15C83.7 230.68 83.32 231.43 83.3 232.34L82.3 270.06C82.3 270.97 82.62 271.72 83.07 271.72H86.3C86.75 271.72 87.13 270.97 87.15 270.06L88.15 232.34C88.2 231.43 87.86 230.68 87.42 230.68Z" fill="#F0F0F0"/>
<path d="M154.34 327.4H174.97V283.08H154.34V327.4Z" fill="#FAFAFA"/>
<path d="M176.94 283.08H173.45C172.699 283.08 172.09 283.689 172.09 284.44V326.04C172.09 326.791 172.699 327.4 173.45 327.4H176.94C177.691 327.4 178.3 326.791 178.3 326.04V284.44C178.3 283.689 177.691 283.08 176.94 283.08Z" fill="#F0F0F0"/>
<path d="M147.4 327.4H168.03V283.08H147.4V327.4Z" fill="#FAFAFA"/>
<path d="M169.99 283.08H166.5C165.749 283.08 165.14 283.689 165.14 284.44V326.04C165.14 326.791 165.749 327.4 166.5 327.4H169.99C170.741 327.4 171.35 326.791 171.35 326.04V284.44C171.35 283.689 170.741 283.08 169.99 283.08Z" fill="#E6E6E6"/>
<path d="M142.11 283.08H159.91L158.5 327.4H142.11V283.08Z" fill="#FAFAFA"/>
<path d="M162.22 283.08H158.06C157.49 283.08 157 283.88 156.97 284.87L155.67 325.61C155.67 326.61 156.07 327.4 156.67 327.4H160.83C161.4 327.4 161.83 326.6 161.91 325.61L163.21 284.87C163.22 283.88 162.78 283.08 162.22 283.08Z" fill="#F0F0F0"/>
<path d="M123.58 327.4H141.41V288.82H123.58V327.4Z" fill="#FAFAFA"/>
<path d="M143.11 288.82H140.1C139.448 288.82 138.92 289.348 138.92 290V326.22C138.92 326.872 139.448 327.4 140.1 327.4H143.11C143.762 327.4 144.29 326.872 144.29 326.22V290C144.29 289.348 143.762 288.82 143.11 288.82Z" fill="#F0F0F0"/>
<path d="M117.58 327.4H135.41V288.82H117.58V327.4Z" fill="#FAFAFA"/>
<path d="M137.11 288.82H134.1C133.448 288.82 132.92 289.348 132.92 290V326.22C132.92 326.872 133.448 327.4 134.1 327.4H137.11C137.762 327.4 138.29 326.872 138.29 326.22V290C138.29 289.348 137.762 288.82 137.11 288.82Z" fill="#E6E6E6"/>
<path d="M113.02 288.82H128.4L127.18 327.4H113.02V288.82Z" fill="#FAFAFA"/>
<path d="M130.39 288.82H126.8C126.31 288.82 125.89 289.52 125.86 290.38L124.74 325.84C124.74 326.7 125.08 327.4 125.57 327.4H129.17C129.66 327.4 130.08 326.7 130.1 325.84L131.23 290.38C131.26 289.52 130.88 288.82 130.39 288.82Z" fill="#F0F0F0"/>
<path d="M250 372.56C357.082 372.56 443.89 367.492 443.89 361.24C443.89 354.988 357.082 349.92 250 349.92C142.917 349.92 56.11 354.988 56.11 361.24C56.11 367.492 142.917 372.56 250 372.56Z" fill="#F5F5F5"/>
<path d="M230.13 358.62C230.231 358.928 230.255 359.256 230.201 359.576C230.147 359.896 230.016 360.198 229.819 360.456C229.622 360.714 229.366 360.92 229.071 361.056C228.777 361.193 228.454 361.256 228.13 361.24H88.83C84.48 361.24 84.48 332.91 88.83 332.91H228.17C228.493 332.894 228.815 332.957 229.108 333.093C229.401 333.229 229.657 333.434 229.854 333.691C230.05 333.948 230.182 334.248 230.237 334.566C230.292 334.885 230.269 335.212 230.17 335.52C228.43 340.92 228.43 353.23 230.13 358.62Z" fill="#081466"/>
<path opacity="0.8" d="M229.93 336.22H145.4C142.07 336.22 142.07 357.93 145.4 357.93H229.93C228.5 352.48 228.5 341.66 229.93 336.22Z" fill="white"/>
<path opacity="0.2" d="M141.19 358.62C141.291 358.928 141.315 359.256 141.261 359.576C141.207 359.896 141.076 360.198 140.879 360.456C140.682 360.714 140.426 360.92 140.131 361.056C139.837 361.193 139.514 361.256 139.19 361.24H88.83C84.48 361.24 84.48 332.91 88.83 332.91H139.23C139.553 332.894 139.875 332.957 140.168 333.093C140.461 333.229 140.717 333.434 140.914 333.691C141.11 333.948 141.242 334.248 141.297 334.566C141.352 334.885 141.329 335.212 141.23 335.52C139.49 340.92 139.49 353.23 141.19 358.62Z" fill="black"/>
<path d="M110.31 332.91H98.8C94.45 332.91 94.45 361.24 98.8 361.24H110.31C106 361.24 106 332.91 110.31 332.91Z" fill="#081466"/>
<path d="M119.38 332.91H114.86C110.51 332.91 110.51 361.24 114.86 361.24H119.38C115 361.24 115 332.91 119.38 332.91Z" fill="#081466"/>
<path d="M80.71 330.56C80.23 331.72 81.41 332.91 83.01 332.91H208.29C213.4 332.91 213.4 307.44 208.29 307.44H83C81.4 307.44 80.22 308.62 80.7 309.79C82.7 314.64 82.7 325.71 80.71 330.56Z" fill="#263238"/>
<path opacity="0.2" d="M80.71 330.56C80.23 331.72 81.41 332.91 83.01 332.91H144.44C149.55 332.91 149.55 307.44 144.44 307.44H83C81.4 307.44 80.22 308.62 80.7 309.79C82.7 314.64 82.7 325.71 80.71 330.56Z" fill="black"/>
<path opacity="0.8" d="M80.93 310.41H141.93C145.84 310.41 145.84 329.93 141.93 329.93H80.93C82.61 325 82.61 315.31 80.93 310.41Z" fill="white"/>
<path opacity="0.2" d="M162.19 313.12C161.81 311.99 162.91 310.89 164.43 310.89H199.5C203.22 310.89 203.22 329.45 199.5 329.45H164.43C162.91 329.45 161.81 328.36 162.19 327.23C163.39 322.603 163.39 317.747 162.19 313.12V313.12Z" fill="white"/>
<path d="M415.73 319.19C415.841 319.528 415.872 319.887 415.823 320.24C415.773 320.592 415.643 320.928 415.443 321.223C415.244 321.517 414.979 321.762 414.67 321.938C414.361 322.115 414.015 322.218 413.66 322.24H266.46C261.86 322.24 261.86 289.24 266.46 289.24H413.66C414.009 289.264 414.349 289.366 414.653 289.54C414.958 289.713 415.219 289.953 415.418 290.241C415.617 290.529 415.748 290.859 415.802 291.205C415.856 291.551 415.832 291.905 415.73 292.24C413.94 298.59 413.94 312.92 415.73 319.19Z" fill="#081466"/>
<path opacity="0.5" d="M415.73 319.19C415.841 319.528 415.872 319.887 415.823 320.24C415.773 320.592 415.643 320.928 415.443 321.223C415.244 321.517 414.979 321.762 414.67 321.938C414.361 322.115 414.015 322.218 413.66 322.24H266.46C261.86 322.24 261.86 289.24 266.46 289.24H413.66C414.009 289.264 414.349 289.366 414.653 289.54C414.958 289.713 415.219 289.953 415.418 290.241C415.617 290.529 415.748 290.859 415.802 291.205C415.856 291.551 415.832 291.905 415.73 292.24C413.94 298.59 413.94 312.92 415.73 319.19Z" fill="white"/>
<path opacity="0.8" d="M415.53 293.12H326.22C322.7 293.12 322.7 318.38 326.22 318.38H415.53C414 312.05 414 299.46 415.53 293.12Z" fill="white"/>
<path opacity="0.6" d="M321.77 319.19C321.881 319.528 321.912 319.887 321.863 320.24C321.813 320.592 321.683 320.928 321.483 321.223C321.284 321.517 321.019 321.762 320.71 321.938C320.401 322.115 320.055 322.218 319.7 322.24H266.46C261.86 322.24 261.86 289.24 266.46 289.24H319.7C320.049 289.264 320.389 289.366 320.693 289.54C320.998 289.713 321.259 289.953 321.458 290.241C321.657 290.529 321.788 290.859 321.842 291.205C321.896 291.551 321.871 291.905 321.77 292.24C320 298.59 320 312.92 321.77 319.19Z" fill="#081466"/>
<path opacity="0.5" d="M300.17 291.71C300.274 291.451 300.317 291.172 300.293 290.895C300.27 290.617 300.182 290.349 300.036 290.111C299.89 289.874 299.69 289.674 299.453 289.528C299.216 289.382 298.948 289.293 298.67 289.27H278.37C273.77 289.27 273.77 322.27 278.37 322.27H298.67C298.948 322.245 299.216 322.155 299.453 322.008C299.69 321.86 299.89 321.66 300.036 321.422C300.181 321.184 300.269 320.915 300.293 320.637C300.316 320.359 300.274 320.079 300.17 319.82C298.12 313.69 298.12 297.82 300.17 291.71Z" fill="white"/>
<path d="M405.17 357.61C405.288 358.049 405.301 358.509 405.206 358.953C405.111 359.398 404.911 359.813 404.624 360.165C404.337 360.516 403.97 360.795 403.553 360.977C403.137 361.158 402.683 361.238 402.23 361.21H249.29C242.76 361.21 242.75 322.21 249.29 322.21H402.29C402.743 322.182 403.197 322.262 403.613 322.443C404.03 322.625 404.397 322.903 404.684 323.255C404.971 323.607 405.171 324.022 405.266 324.467C405.361 324.911 405.348 325.371 405.23 325.81C402.62 333.24 402.63 350.19 405.17 357.61Z" fill="#081466"/>
<path opacity="0.2" d="M405.17 357.61C405.288 358.049 405.301 358.509 405.206 358.953C405.111 359.398 404.911 359.813 404.624 360.165C404.337 360.516 403.97 360.795 403.553 360.977C403.137 361.158 402.683 361.238 402.23 361.21H249.29C242.76 361.21 242.75 322.21 249.29 322.21H402.29C402.743 322.182 403.197 322.262 403.613 322.443C404.03 322.625 404.397 322.903 404.684 323.255C404.971 323.607 405.171 324.022 405.266 324.467C405.361 324.911 405.348 325.371 405.23 325.81C402.62 333.24 402.63 350.19 405.17 357.61Z" fill="white"/>
<path opacity="0.8" d="M404.87 326.77H312.4C307.4 326.77 307.4 356.65 312.4 356.65H404.88C402.74 349.16 402.74 334.27 404.87 326.77Z" fill="white"/>
<path opacity="0.6" d="M306.08 357.63C306.2 358.068 306.214 358.528 306.121 358.973C306.027 359.417 305.829 359.833 305.542 360.185C305.256 360.537 304.889 360.816 304.473 360.997C304.057 361.179 303.603 361.259 303.15 361.23H249.29C242.76 361.23 242.75 322.23 249.29 322.23H303.15C303.603 322.202 304.057 322.282 304.473 322.463C304.89 322.645 305.257 322.923 305.544 323.275C305.831 323.627 306.031 324.042 306.126 324.487C306.221 324.931 306.208 325.391 306.09 325.83C303.54 333.26 303.54 350.2 306.08 357.63Z" fill="#081466"/>
<path opacity="0.5" d="M273.82 323.59C273.903 323.447 273.946 323.284 273.943 323.119C273.939 322.953 273.891 322.792 273.802 322.653C273.713 322.513 273.587 322.401 273.439 322.328C273.29 322.255 273.125 322.225 272.96 322.24H263.81C257.29 322.24 257.29 361.24 263.81 361.24H273C273.165 361.255 273.33 361.225 273.479 361.152C273.627 361.079 273.753 360.967 273.842 360.827C273.931 360.688 273.979 360.527 273.983 360.361C273.986 360.196 273.943 360.033 273.86 359.89C269.89 353.86 269.89 329.61 273.82 323.59Z" fill="white"/>
<path opacity="0.5" d="M288.1 323.59C288.182 323.446 288.224 323.283 288.22 323.117C288.217 322.952 288.168 322.791 288.08 322.651C287.991 322.511 287.866 322.398 287.718 322.324C287.57 322.249 287.405 322.217 287.24 322.23H278.09C271.57 322.23 271.57 361.23 278.09 361.23H287.24C287.404 361.243 287.568 361.211 287.715 361.137C287.862 361.064 287.986 360.951 288.074 360.812C288.161 360.673 288.209 360.513 288.212 360.348C288.215 360.184 288.173 360.022 288.09 359.88C284.17 353.86 284.17 329.6 288.1 323.59Z" fill="white"/>
<path d="M403.67 268.52C403.493 265.742 402.84 263.016 401.74 260.46L402.64 260.02C403.783 262.684 404.46 265.526 404.64 268.42L403.67 268.52Z" fill="#081466"/>
<path d="M397.4 256.13H372.56V257.13H397.4V256.13Z" fill="#081466"/>
<path d="M235.51 286.54C235 287.9 236.25 289.27 237.94 289.27H397.4C402.79 289.27 402.79 259.63 397.4 259.63H237.94C236.25 259.63 235 261.01 235.51 262.37C237.61 268 237.61 280.89 235.51 286.54Z" fill="#081466"/>
<path opacity="0.2" d="M235.51 286.54C235 287.9 236.25 289.27 237.94 289.27H329.94C335.34 289.27 335.34 259.63 329.94 259.63H237.94C236.25 259.63 235 261.01 235.51 262.37C237.61 268 237.61 280.89 235.51 286.54Z" fill="black"/>
<path opacity="0.8" d="M235.75 263.1H327.27C331.41 263.1 331.41 285.81 327.27 285.81H235.75C237.52 280.11 237.52 268.8 235.75 263.1Z" fill="white"/>
<path opacity="0.2" d="M348.69 266.24C348.29 264.93 349.45 263.66 351.05 263.66H388.11C392.04 263.66 392.04 285.25 388.11 285.25H351.05C349.45 285.25 348.29 283.98 348.69 282.66C350 278.51 350 270.4 348.69 266.24Z" fill="white"/>
<path d="M220.6 43C216.09 47.83 205.08 43 203.4 56.3C201.58 70.64 208.48 77.53 199.57 81.3C185.57 87.15 175.57 110.53 195.01 119.3C214.45 128.07 255.85 118.88 251.19 101.01C246.53 83.14 247.45 73.55 252.95 65.13C260.2 54 258.65 39.7 252.74 34.52C243.54 26.42 230.83 32 220.6 43Z" fill="#263238"/>
<path d="M244.66 100.53C244.584 100.533 244.509 100.507 244.451 100.457C244.394 100.406 244.358 100.336 244.35 100.26C244.343 100.22 244.344 100.179 244.354 100.139C244.363 100.099 244.38 100.062 244.405 100.029C244.429 99.9963 244.46 99.9689 244.495 99.9484C244.53 99.928 244.569 99.9149 244.61 99.9101C248.47 99.3801 250.77 98.4301 251.85 96.9101C253.19 95.0201 252.61 92.2101 251.85 88.6501C250.67 82.8601 249.04 74.9301 254.24 64.9101C260.55 52.7601 258.24 39.4401 252.33 35.0801C252.264 35.032 252.22 34.96 252.207 34.8795C252.194 34.799 252.213 34.7166 252.26 34.6501C252.31 34.5835 252.384 34.539 252.466 34.5259C252.548 34.5129 252.632 34.5323 252.7 34.5801C258.86 39.0901 261.24 52.7701 254.79 65.2001C249.7 75.0201 251.3 82.8301 252.46 88.5301C253.22 92.2301 253.82 95.1601 252.32 97.2701C251.14 98.9401 248.71 99.9701 244.67 100.53H244.66Z" fill="#263238"/>
<path d="M194.24 83.2099C193.608 83.2073 192.977 83.1672 192.35 83.0899C192.309 83.085 192.27 83.072 192.234 83.0517C192.198 83.0313 192.167 83.0041 192.142 82.9715C192.117 82.9389 192.098 82.9017 192.088 82.8619C192.077 82.8221 192.074 82.7807 192.08 82.7399C192.085 82.6991 192.098 82.6596 192.118 82.6238C192.139 82.5881 192.166 82.5567 192.198 82.5316C192.231 82.5064 192.268 82.488 192.308 82.4775C192.348 82.4669 192.389 82.4643 192.43 82.4699C195.27 82.8199 197.33 82.3999 198.72 81.1799C201.32 78.8899 201.36 74.0999 201.39 68.5499C201.39 62.2699 201.48 55.1599 205.55 50.3099C205.576 50.2784 205.609 50.2524 205.645 50.2333C205.681 50.2142 205.721 50.2025 205.762 50.1988C205.803 50.1951 205.844 50.1994 205.883 50.2116C205.922 50.2239 205.959 50.2437 205.99 50.2699C206.022 50.2962 206.048 50.3284 206.067 50.3647C206.086 50.4011 206.097 50.4408 206.101 50.4816C206.105 50.5225 206.101 50.5637 206.088 50.6028C206.076 50.642 206.056 50.6784 206.03 50.7099C202.1 55.3899 202.03 62.3799 202.03 68.5599C202.03 74.2499 201.96 79.1699 199.15 81.6499C197.765 82.7628 196.014 83.3191 194.24 83.2099V83.2099Z" fill="#263238"/>
<path d="M292.39 259.61C285.72 259.53 283.1 259.11 280.03 259.16C276.96 259.21 276.23 259.75 273.03 259.61C270.87 259.52 270.86 256.95 271.69 255.19C272.34 253.81 273.14 252.42 273.88 250.7L282.34 251.32C283.48 254.54 289.14 255.92 294.1 257.06C296.07 257.53 295.06 259.64 292.39 259.61Z" fill="#081466"/>
<path d="M248.28 136.76C248.28 136.76 270.66 156.01 293.28 176.43C302.84 185.08 282.79 251.03 282.79 251.03C282.37 252.44 274.91 250.43 273.79 249.32C273.79 249.32 272.65 198.13 277.5 187.82C227.34 175.14 219.5 150.51 219.5 150.51L223.1 135.23L248.28 136.76Z" fill="#263238"/>
<path opacity="0.2" d="M222.81 156.58C225.618 160.504 228.945 164.03 232.7 167.06C237.7 161.21 236.3 151.76 236.3 151.76L222.81 156.58Z" fill="black"/>
<path d="M284.53 248.18C284.39 249.18 284.15 250.95 284.02 252.26C284 252.472 283.9 252.669 283.74 252.81C283.58 252.951 283.373 253.026 283.16 253.02C279.813 252.758 276.499 252.182 273.26 251.3C273.104 251.257 272.966 251.164 272.867 251.036C272.768 250.908 272.713 250.752 272.71 250.59L272.64 246.94C272.639 246.821 272.664 246.704 272.711 246.595C272.759 246.486 272.829 246.389 272.917 246.309C273.004 246.229 273.108 246.168 273.22 246.13C273.333 246.092 273.452 246.079 273.57 246.09L283.89 247.34C283.988 247.351 284.083 247.382 284.169 247.43C284.255 247.479 284.33 247.545 284.39 247.623C284.45 247.702 284.493 247.791 284.517 247.887C284.541 247.983 284.545 248.082 284.53 248.18V248.18Z" fill="#263238"/>
<path opacity="0.3" d="M284.53 248.18C284.39 249.18 284.15 250.95 284.02 252.26C284 252.472 283.9 252.669 283.74 252.81C283.58 252.951 283.373 253.026 283.16 253.02C279.813 252.758 276.499 252.182 273.26 251.3C273.104 251.257 272.966 251.164 272.867 251.036C272.768 250.908 272.713 250.752 272.71 250.59L272.64 246.94C272.639 246.821 272.664 246.704 272.711 246.595C272.759 246.486 272.829 246.389 272.917 246.309C273.004 246.229 273.108 246.168 273.22 246.13C273.333 246.092 273.452 246.079 273.57 246.09L283.89 247.34C283.988 247.351 284.083 247.382 284.169 247.43C284.255 247.479 284.33 247.545 284.39 247.623C284.45 247.702 284.493 247.791 284.517 247.887C284.541 247.983 284.545 248.082 284.53 248.18V248.18Z" fill="white"/>
<path d="M194.47 307.44C187.69 307.44 185.47 304.89 181.68 304.19C178.48 303.59 177.63 303.87 175.05 303.42C172.89 303.04 172.72 301.56 174.05 299.37C174.918 297.856 175.654 296.27 176.25 294.63L186.53 295.31C187.6 298.06 190.07 303.65 193.84 304.31C197.39 305 197.17 307.44 194.47 307.44Z" fill="#081466"/>
<path d="M246.73 136.7C246.73 136.7 223.08 178.75 213.56 204.76C203.56 232.08 187.64 276.76 186.49 295.31C184.79 296.12 179.21 295.81 176.21 294.63C176.21 294.63 173.43 230.63 192.68 204.99C197.27 150.08 204.89 141.3 212.99 134.61L246.73 136.7Z" fill="#263238"/>
<path d="M187.73 291.52C187.607 292.786 187.574 294.059 187.63 295.33C187.644 295.551 187.569 295.769 187.423 295.936C187.277 296.102 187.071 296.205 186.85 296.22C183.02 296.57 177.68 295.34 175.99 294.92C175.833 294.881 175.693 294.791 175.592 294.664C175.491 294.538 175.434 294.382 175.43 294.22L175.3 290.64C175.298 290.522 175.321 290.406 175.367 290.297C175.413 290.189 175.481 290.091 175.566 290.01C175.652 289.929 175.753 289.867 175.864 289.827C175.975 289.788 176.093 289.772 176.21 289.78L187.05 290.71C187.148 290.717 187.244 290.745 187.332 290.79C187.419 290.835 187.497 290.897 187.56 290.972C187.624 291.047 187.671 291.135 187.7 291.229C187.73 291.323 187.74 291.422 187.73 291.52V291.52Z" fill="#263238"/>
<path opacity="0.3" d="M187.73 291.52C187.607 292.786 187.574 294.059 187.63 295.33C187.644 295.551 187.569 295.769 187.423 295.936C187.277 296.102 187.071 296.205 186.85 296.22C183.02 296.57 177.68 295.34 175.99 294.92C175.833 294.881 175.693 294.791 175.592 294.664C175.491 294.538 175.434 294.382 175.43 294.22L175.3 290.64C175.298 290.522 175.321 290.406 175.367 290.297C175.413 290.189 175.481 290.091 175.566 290.01C175.652 289.929 175.753 289.867 175.864 289.827C175.975 289.788 176.093 289.772 176.21 289.78L187.05 290.71C187.148 290.717 187.244 290.745 187.332 290.79C187.419 290.835 187.497 290.897 187.56 290.972C187.624 291.047 187.671 291.135 187.7 291.229C187.73 291.323 187.74 291.422 187.73 291.52V291.52Z" fill="white"/>
<path d="M253 95.4501C254 97.3401 255.08 99.4501 256.18 101.45C257.28 103.45 258.39 105.45 259.51 107.4C261.77 111.33 264.13 115.18 266.66 118.81L265.3 117.6C266.304 118.305 267.41 118.852 268.58 119.22C269.996 119.695 271.447 120.056 272.92 120.3C274.46 120.58 276.06 120.77 277.69 120.92C279.32 121.07 281.03 121.16 282.59 121.26H282.8C283.45 121.297 284.066 121.56 284.543 122.002C285.02 122.444 285.328 123.039 285.415 123.684C285.501 124.329 285.36 124.983 285.016 125.536C284.672 126.088 284.147 126.503 283.53 126.71C281.743 127.305 279.915 127.766 278.06 128.09C276.196 128.422 274.312 128.625 272.42 128.7C270.413 128.777 268.403 128.657 266.42 128.34C264.182 128.003 262.017 127.286 260.02 126.22C259.605 125.993 259.235 125.692 258.93 125.33L258.66 125.01C257.07 123.11 255.52 121.17 254.1 119.18C252.68 117.19 251.29 115.18 250 113.18C248.71 111.18 247.46 109.05 246.28 106.94C245.1 104.83 243.98 102.74 242.91 100.43C242.348 99.1174 242.309 97.6398 242.801 96.2992C243.292 94.9587 244.277 93.8564 245.554 93.2179C246.831 92.5794 248.304 92.4528 249.671 92.864C251.038 93.2751 252.197 94.1931 252.91 95.4301L253 95.4501Z" fill="#FFB573"/>
<path d="M247.48 87.3799C254.01 89.5299 255.07 92.4599 258.65 103.28C256.27 109.77 246.65 113.06 246.65 113.06C246.65 113.06 235.29 94.5599 247.48 87.3799Z" fill="#081466"/>
<path d="M256.42 101.46C256.05 105.04 255.13 109.31 253.2 117.7C251.7 124.82 251.68 138.7 249.28 139.43C244.67 141.71 233.13 140.83 212.99 134.61C213.63 124.21 214.84 117.15 211.38 93.29C211.162 92.0391 211.226 90.7554 211.567 89.5324C211.908 88.3093 212.517 87.1777 213.351 86.2198C214.184 85.2619 215.22 84.5019 216.384 83.9951C217.549 83.4882 218.811 83.2474 220.08 83.29C221.54 83.29 223.08 83.41 224.65 83.55C230.189 83.8831 235.696 84.615 241.13 85.74C242.9 86.14 244.73 86.61 246.47 87.09C249.534 87.9652 252.201 89.8755 254.015 92.4956C255.829 95.1157 256.679 98.2836 256.42 101.46V101.46Z" fill="#081466"/>
<path d="M185.92 142.82L187.92 140.99C188.292 140.65 188.577 140.225 188.751 139.752C188.925 139.278 188.983 138.77 188.92 138.27L188.37 133.5C188.265 132.562 187.938 131.663 187.416 130.877C186.894 130.091 186.193 129.441 185.37 128.98L184.37 128.41C180.8 131.22 179.01 136.88 179.01 136.88L178.32 138.44C178.168 138.755 178.081 139.098 178.063 139.447C178.045 139.797 178.096 140.146 178.214 140.476C178.332 140.805 178.515 141.108 178.751 141.366C178.987 141.624 179.272 141.833 179.59 141.98L182.66 143.38C183.2 143.61 183.794 143.68 184.373 143.58C184.951 143.481 185.488 143.217 185.92 142.82Z" fill="#FFB573"/>
<path d="M290.89 118.8L288.33 117.8C287.856 117.621 287.347 117.558 286.844 117.618C286.341 117.677 285.859 117.856 285.44 118.14L281.44 120.82C280.655 121.348 280.008 122.057 279.554 122.887C279.1 123.717 278.851 124.644 278.83 125.59V126.78C282.96 128.66 288.83 127.64 288.83 127.64L290.53 127.54C290.88 127.528 291.224 127.448 291.542 127.302C291.861 127.157 292.147 126.95 292.385 126.694C292.623 126.437 292.808 126.136 292.929 125.807C293.05 125.479 293.105 125.13 293.09 124.78L292.93 121.41C292.884 120.823 292.666 120.262 292.303 119.798C291.94 119.334 291.449 118.987 290.89 118.8Z" fill="#FFB573"/>
<path d="M217.34 96.5101L216.06 97.1001L214.66 97.7401C213.73 98.1901 212.81 98.6601 211.89 99.1401C210.04 100.14 208.24 101.14 206.47 102.19C204.7 103.24 202.99 104.41 201.33 105.6C199.67 106.79 198.13 108.09 196.63 109.42L197.29 108.58C196.803 109.297 196.374 110.053 196.01 110.84C195.57 111.75 195.16 112.74 194.76 113.75C193.96 115.75 193.18 117.89 192.46 120.04C191.74 122.19 191.01 124.37 190.3 126.55L188.14 133.12C187.931 133.765 187.494 134.313 186.911 134.66C186.329 135.008 185.64 135.132 184.972 135.01C184.305 134.888 183.705 134.527 183.283 133.996C182.861 133.464 182.647 132.798 182.68 132.12C182.79 129.71 183.01 127.37 183.28 125.01C183.55 122.65 183.89 120.3 184.28 117.94C184.67 115.58 185.18 113.21 185.83 110.81C186.15 109.61 186.5 108.41 186.94 107.15C187.405 105.763 188.001 104.424 188.72 103.15C188.846 102.941 188.99 102.744 189.15 102.56L189.39 102.31C191.037 100.494 192.801 98.787 194.67 97.2001C196.512 95.6345 198.442 94.1755 200.45 92.8301C202.432 91.4867 204.485 90.2516 206.6 89.1301C207.66 88.5701 208.73 88.0401 209.82 87.5201C210.37 87.2701 210.91 87.0101 211.48 86.7701C212.05 86.5301 212.57 86.3201 213.28 86.0501C214.642 85.5056 216.163 85.5182 217.516 86.0851C218.868 86.6519 219.944 87.7277 220.511 89.0803C221.078 90.433 221.09 91.9542 220.546 93.316C220.001 94.6778 218.943 95.7711 217.6 96.3601L217.34 96.5101Z" fill="#FFB573"/>
<path d="M227 85.8901C222.1 82.3801 219.12 82.0001 207.26 87.1501C205.85 94.6101 210.47 105.56 210.47 105.56C210.47 105.56 226.25 97.3401 227 85.8901Z" fill="#081466"/>
<path d="M228.28 65.1099C229.01 70.5999 229.48 80.5499 225.56 83.6299C225.56 83.6299 230.68 83.5399 240.47 91.5499C244.14 87.5499 242.04 85.8199 242.04 85.8199C236.21 83.6099 236.62 79.1999 237.89 75.1699L228.28 65.1099Z" fill="#FFB573"/>
<path d="M238.4 89.9299C234.83 89.9299 233.02 95.1199 233.02 95.1199C233.02 95.1199 224.44 88.2799 223.27 83.4699C224.409 83.0106 225.524 82.4932 226.61 81.9199C226.61 81.9199 236.62 87.6299 238.4 89.9299Z" fill="white"/>
<path d="M241.82 89.8C241.82 89.8 244.52 90.8 245.41 94.8C247.24 87.18 243.67 85.98 243.67 85.98C242.775 85.3092 241.663 84.9956 240.55 85.1C241.28 85.6095 241.807 86.3598 242.04 87.2191C242.272 88.0785 242.194 88.9922 241.82 89.8V89.8Z" fill="white"/>
<path opacity="0.2" d="M232.2 69.21L237.88 75.21C237.571 76.1479 237.346 77.1118 237.21 78.09C234.97 77.46 232.01 74.55 231.91 72.09C231.829 71.1203 231.927 70.1439 232.2 69.21V69.21Z" fill="black"/>
<path d="M222.12 57.1201C224.12 65.6601 224.85 69.3101 229.98 73.2101C237.69 79.0701 247.7 75.2701 248.24 66.4301C248.72 58.4301 245.3 45.8301 236.24 43.4301C234.32 42.8529 232.281 42.7988 230.333 43.2733C228.386 43.7478 226.6 44.7337 225.16 46.1292C223.721 47.5247 222.68 49.2791 222.146 51.2113C221.611 53.1435 221.603 55.1833 222.12 57.1201V57.1201Z" fill="#FFB573"/>
<path d="M223.79 63.26C226.93 61.72 230.26 54.15 225.79 50.57C229.48 51.26 233.71 50.27 237.62 47.25C242.72 43.25 250.23 53.18 247.76 47.35C244.2 38.95 233.47 36.85 223.76 43.83C214.05 50.81 214.74 59.3 223.79 63.26Z" fill="#263238"/>
<path d="M221.13 61.55C221.096 61.5465 221.064 61.5323 221.039 61.5093C221.013 61.4862 220.996 61.4557 220.989 61.4221C220.982 61.3885 220.987 61.3537 221.001 61.3227C221.016 61.2917 221.04 61.2662 221.07 61.2499C223.57 60.1699 234.18 57.9099 234.63 57.8199C234.65 57.814 234.672 57.8125 234.693 57.8154C234.714 57.8184 234.734 57.8258 234.752 57.8371C234.77 57.8485 234.785 57.8635 234.797 57.8812C234.809 57.899 234.817 57.919 234.82 57.94C234.826 57.9795 234.817 58.02 234.795 58.0533C234.773 58.0866 234.739 58.1104 234.7 58.12C234.59 58.12 223.7 60.4699 221.19 61.5399L221.13 61.55Z" fill="white"/>
<path opacity="0.2" d="M234 58.0001C232.928 57.5287 231.713 57.4999 230.62 57.9201C231.731 58.166 232.879 58.1931 234 58.0001V58.0001Z" fill="black"/>
<path opacity="0.2" d="M233.91 58.76C233.39 58.6503 232.852 58.6551 232.334 58.7743C231.816 58.8934 231.33 59.124 230.91 59.45C231.947 59.4334 232.97 59.1983 233.91 58.76V58.76Z" fill="black"/>
<path d="M235.86 57.88C236 58.61 236.49 59.15 236.96 59.09C237.43 59.03 237.69 58.4001 237.55 57.6701C237.41 56.9401 236.91 56.4101 236.45 56.4601C235.99 56.5101 235.72 57.16 235.86 57.88Z" fill="#263238"/>
<path d="M244.64 56.9301C244.78 57.6501 245.28 58.1901 245.74 58.1401C246.2 58.0901 246.47 57.4401 246.33 56.7201C246.19 56.0001 245.7 55.4501 245.23 55.5101C244.76 55.5701 244.5 56.2001 244.64 56.9301Z" fill="#263238"/>
<path d="M245 55.5799L246.62 54.8599C246.62 54.8599 246 56.3299 245 55.5799Z" fill="#263238"/>
<path d="M243 58.3201C243.866 59.9515 244.934 61.4668 246.18 62.8301C245.839 63.1163 245.439 63.3232 245.008 63.4356C244.578 63.548 244.127 63.5632 243.69 63.4801L243 58.3201Z" fill="#ED893E"/>
<path d="M239.85 66.7099C240.253 66.7442 240.657 66.7442 241.06 66.7099C241.087 66.7064 241.114 66.6972 241.137 66.6829C241.161 66.6687 241.182 66.6497 241.198 66.6272C241.214 66.6046 241.225 66.579 241.23 66.5519C241.236 66.5249 241.236 66.4969 241.23 66.4699C241.22 66.4125 241.189 66.3609 241.143 66.3256C241.096 66.2903 241.038 66.274 240.98 66.2799C240.075 66.3896 239.157 66.2966 238.292 66.0078C237.427 65.719 236.638 65.2415 235.98 64.6099C235.96 64.59 235.937 64.5741 235.911 64.5633C235.886 64.5525 235.858 64.5469 235.83 64.5469C235.802 64.5469 235.774 64.5525 235.749 64.5633C235.723 64.5741 235.7 64.59 235.68 64.6099C235.642 64.6506 235.621 64.7042 235.621 64.7599C235.621 64.8156 235.642 64.8692 235.68 64.9099C236.805 65.9972 238.287 66.6372 239.85 66.7099V66.7099Z" fill="#263238"/>
<path d="M220.09 64.7701C220.572 65.4577 221.191 66.0376 221.909 66.4732C222.627 66.9087 223.428 67.1903 224.26 67.3001C226.34 67.4701 226.79 65.0501 225.73 62.9001C224.78 60.9701 222.55 58.5401 220.73 59.3801C218.91 60.2201 218.74 63.0001 220.09 64.7701Z" fill="#FFB573"/>
<path d="M233.05 52.3699C233.106 52.3699 233.161 52.3574 233.211 52.3331C233.261 52.3089 233.305 52.2736 233.34 52.2299C233.662 51.818 234.08 51.492 234.558 51.2809C235.036 51.0698 235.559 50.9801 236.08 51.0199C236.134 51.0283 236.189 51.0256 236.242 51.0118C236.295 50.998 236.345 50.9734 236.388 50.9397C236.431 50.9059 236.467 50.8637 236.493 50.8156C236.519 50.7674 236.535 50.7145 236.54 50.6599C236.544 50.5451 236.507 50.4325 236.436 50.3425C236.364 50.2526 236.263 50.1914 236.15 50.1699C235.492 50.1116 234.83 50.2172 234.223 50.4772C233.615 50.7372 233.082 51.1435 232.67 51.6599C232.622 51.7281 232.593 51.8085 232.588 51.892C232.583 51.9754 232.601 52.0587 232.64 52.1324C232.68 52.2062 232.739 52.2674 232.811 52.3094C232.884 52.3513 232.966 52.3723 233.05 52.3699V52.3699Z" fill="#263238"/>
<path d="M246.26 52.0001C246.314 52.006 246.368 52.0011 246.419 51.9856C246.471 51.9702 246.519 51.9445 246.56 51.9101C246.6 51.871 246.632 51.8243 246.653 51.7728C246.675 51.7213 246.686 51.6659 246.686 51.6101C246.686 51.5542 246.675 51.4989 246.653 51.4474C246.632 51.3958 246.6 51.3492 246.56 51.3101C246.128 50.7674 245.577 50.3317 244.949 50.0369C244.321 49.742 243.634 49.596 242.94 49.6101C242.885 49.6145 242.831 49.6307 242.783 49.6576C242.734 49.6845 242.692 49.7214 242.659 49.7659C242.626 49.8103 242.602 49.8614 242.59 49.9156C242.579 49.9697 242.578 50.0258 242.59 50.0801C242.607 50.1931 242.666 50.2957 242.755 50.3678C242.843 50.4399 242.956 50.4763 243.07 50.4701C243.62 50.4642 244.164 50.5846 244.66 50.8222C245.155 51.0597 245.59 51.4079 245.93 51.8401C245.97 51.8894 246.02 51.9293 246.077 51.957C246.134 51.9847 246.197 51.9994 246.26 52.0001V52.0001Z" fill="#263238"/>
<path d="M238.57 62.41C236.46 62.41 234.63 60.17 234.43 57.3C234.309 55.9483 234.621 54.593 235.32 53.43C235.596 52.937 235.986 52.5173 236.458 52.2059C236.929 51.8945 237.468 51.7005 238.03 51.64C240.24 51.49 242.18 53.78 242.39 56.75C242.6 59.72 240.97 62.25 238.78 62.4L238.57 62.41ZM238.24 52H238.06C237.546 52.059 237.052 52.2394 236.621 52.5262C236.19 52.8131 235.833 53.1983 235.58 53.65C234.916 54.7562 234.622 56.0453 234.74 57.33C234.93 60.12 236.74 62.27 238.74 62.14C240.74 62.01 242.25 59.61 242.06 56.82C241.87 54.03 240.19 52 238.24 52Z" fill="white"/>
<path d="M247.92 61.87C245.81 61.87 243.97 59.64 243.77 56.77C243.654 55.4186 243.965 54.0648 244.66 52.9C244.938 52.4068 245.33 51.9871 245.803 51.6758C246.276 51.3645 246.817 51.1705 247.38 51.11C249.57 50.96 251.53 53.25 251.73 56.21C251.846 57.5614 251.535 58.9152 250.84 60.08C250.563 60.5743 250.171 60.9948 249.698 61.3063C249.225 61.6178 248.684 61.8111 248.12 61.87H247.92ZM247.59 51.42H247.4C246.886 51.479 246.392 51.6593 245.961 51.9462C245.53 52.2331 245.173 52.6182 244.92 53.07C244.265 54.1798 243.971 55.4659 244.08 56.75C244.27 59.45 245.97 61.56 247.92 61.56H248.1C248.615 61.5034 249.109 61.324 249.541 61.0369C249.972 60.7498 250.329 60.3633 250.58 59.91C251.239 58.8053 251.533 57.5212 251.42 56.24C251.23 53.53 249.53 51.42 247.59 51.42V51.42Z" fill="white"/>
<path d="M244 57.1801C243.973 57.1786 243.948 57.1706 243.925 57.1566C243.902 57.1426 243.883 57.1232 243.87 57.1001C243.49 56.5001 242.38 57.1501 242.37 57.1501C242.353 57.1609 242.334 57.1683 242.314 57.1716C242.294 57.175 242.274 57.1743 242.254 57.1697C242.235 57.165 242.216 57.1564 242.2 57.1445C242.184 57.1325 242.17 57.1174 242.16 57.1001C242.135 57.071 242.121 57.0337 242.121 56.9951C242.121 56.9565 242.135 56.9192 242.16 56.8901C242.22 56.8901 243.54 56.0701 244.08 56.8901C244.092 56.9065 244.101 56.9255 244.105 56.9457C244.11 56.9659 244.109 56.9868 244.104 57.0069C244.1 57.0269 244.091 57.0457 244.078 57.0618C244.065 57.0779 244.049 57.091 244.03 57.1001C244.031 57.1147 244.028 57.1294 244.023 57.1431C244.018 57.1568 244.01 57.1694 244 57.1801V57.1801Z" fill="white"/>
<path d="M236.25 56.5301L237.86 55.8201C237.86 55.8201 237.25 57.2901 236.25 56.5301Z" fill="#263238"/>
</svg>
