<svg width="76" height="70" viewBox="0 0 76 70" fill="none" xmlns="http://www.w3.org/2000/svg">
<path d="M71.3536 1.74834L73.394 3.64126C76.2056 6.25284 75.7803 10.8825 72.4361 13.9817L30.3585 53.0175L16.7258 57.6439C15.0139 58.2278 13.347 57.4707 13.0081 55.9595C12.8935 55.4114 12.9474 54.8444 13.1637 54.3233L18.2474 41.567L60.2074 2.63705C63.5516 -0.462198 68.542 -0.860032 71.3536 1.75155V1.74834ZM28.5221 5.63043C28.9763 5.63043 29.426 5.71341 29.8456 5.87465C30.2652 6.03588 30.6464 6.2722 30.9675 6.57013C31.2887 6.86805 31.5434 7.22173 31.7172 7.61098C31.891 8.00024 31.9805 8.41743 31.9805 8.83876C31.9805 9.26008 31.891 9.67728 31.7172 10.0665C31.5434 10.4558 31.2887 10.8095 30.9675 11.1074C30.6464 11.4053 30.2652 11.6416 29.8456 11.8029C29.426 11.9641 28.9763 12.0471 28.5221 12.0471H14.6888C12.8544 12.0471 11.0951 12.7231 9.79798 13.9265C8.50085 15.1298 7.77214 16.762 7.77214 18.4638V56.9638C7.77214 58.6656 8.50085 60.2977 9.79798 61.501C11.0951 62.7044 12.8544 63.3804 14.6888 63.3804H56.1888C58.0232 63.3804 59.7825 62.7044 61.0796 61.501C62.3768 60.2977 63.1055 58.6656 63.1055 56.9638V44.1304C63.1055 43.2795 63.4698 42.4635 64.1184 41.8618C64.767 41.2601 65.6466 40.9221 66.5638 40.9221C67.481 40.9221 68.3606 41.2601 69.0092 41.8618C69.6578 42.4635 70.0221 43.2795 70.0221 44.1304V56.9638C70.0221 60.3674 68.5647 63.6316 65.9705 66.0383C63.3762 68.445 59.8576 69.7971 56.1888 69.7971H14.6888C11.02 69.7971 7.50141 68.445 4.90716 66.0383C2.31291 63.6316 0.855469 60.3674 0.855469 56.9638V18.4638C0.855469 15.0601 2.31291 11.7959 4.90716 9.38922C7.50141 6.98251 11.02 5.63043 14.6888 5.63043H28.5221Z" fill="#293E6F"/>
</svg>
