<svg width="800" height="800" viewBox="0 0 800 800" fill="none" xmlns="http://www.w3.org/2000/svg">
<path fill-rule="evenodd" clip-rule="evenodd" d="M400 0C179.091 0 0 179.091 0 400C0 620.909 179.091 800 400 800C620.909 800 800 620.909 800 400C800 179.091 620.909 0 400 0ZM359.709 288.545C368.073 272.073 374.255 264.255 379.382 260.182C383.236 257.127 388.473 254.545 400 254.545C422.727 254.545 436.364 271.636 436.364 290.109C436.364 300.218 434.4 305.236 429.018 311.636C421.491 320.582 407.564 331.455 380 349.673L363.636 360.436V436.364C363.636 446.008 367.468 455.257 374.287 462.077C381.107 468.896 390.356 472.727 400 472.727C409.644 472.727 418.893 468.896 425.713 462.077C432.532 455.257 436.364 446.008 436.364 436.364V399.382C456.073 385.782 472.618 372.764 484.618 358.509C501.964 337.927 509.091 315.964 509.091 290.109C509.091 236.655 467.891 181.818 400 181.818C375.127 181.818 353.127 188.218 334.255 203.164C316.655 217.091 304.655 236.255 294.836 255.709C292.555 259.981 291.15 264.665 290.703 269.487C290.256 274.309 290.777 279.172 292.235 283.789C293.693 288.407 296.059 292.688 299.194 296.379C302.328 300.07 306.169 303.098 310.489 305.285C314.81 307.472 319.524 308.774 324.355 309.114C329.185 309.455 334.035 308.827 338.62 307.268C343.205 305.709 347.432 303.249 351.053 300.034C354.675 296.819 357.618 292.913 359.709 288.545ZM436.364 563.636C436.364 553.992 432.532 544.743 425.713 537.923C418.893 531.104 409.644 527.273 400 527.273C390.356 527.273 381.107 531.104 374.287 537.923C367.468 544.743 363.636 553.992 363.636 563.636V581.818C363.636 591.462 367.468 600.712 374.287 607.531C381.107 614.351 390.356 618.182 400 618.182C409.644 618.182 418.893 614.351 425.713 607.531C432.532 600.712 436.364 591.462 436.364 581.818V563.636Z" fill="#081466"/>
</svg>
